<?xml version="1.0" encoding="utf-8"?>
<!DOCTYPE svg PUBLIC "-//W3C//DTD SVG 1.1//EN" "http://www.w3.org/Graphics/SVG/1.1/DTD/svg11.dtd">
<svg version="1.1" xmlns="http://www.w3.org/2000/svg" xmlns:xlink="http://www.w3.org/1999/xlink" x="0px" y="0px" viewBox="0 0 30 30" width="100%" height="100%" enable-background="new 0 0 30 30" xml:space="preserve" >

	<style type="text/css" >
		.shape { fill: #999999; 
			transform:scale(1); 
			transition-property: fill; 
			transition-duration: 0.25s; 
			transition-timing-function: ease; 
			cursor: pointer; }
			
		a:hover .shape { fill: #00B285; 
			transform:scale(1); 
			transition-property: fill; 
			transition-duration: 0.25s; 
			transition-timing-function: ease; 
			cursor: pointer; }
	</style>

<a xlink:href="http://vine.co" xlink:show="new" xlink:title="LUV Comics on Vine (for iPhone users only)">
	<rect fill="#FFFFFF" width="30" height="30"/>
	<path class="shape" display="inline" fill="#00B285" d="M0,0v30h30V0H0z M18.125,9.684c0,1.059,0.288,5.391,5.343,5.872v2.359
		c0,0-0.722-0.005-1.729-0.229c-0.189,0.338-0.397,0.685-0.63,1.048c-2.407,3.753-4.379,5.727-5.244,5.775
		c-0.868,0.048-1.011,0.097-1.733-0.481c-0.722-0.579-6.594-4.477-6.644-15.595h2.6c0,0-0.578,8.231,5.39,13.092
		c0,0,2.132-1.691,3.714-4.795c-1.899-1.068-3.714-3.095-3.714-6.949c0-5.487,7.989-4.766,7.989-0.435
		c0,1.537,0.009,2.842-0.208,4.164h-2.854c0.279-1.095,0.454-2.29,0.462-3.584C20.868,7.566,18.125,8.289,18.125,9.684z"/>
	
	</a>
</svg>