<?xml version="1.0" encoding="utf-8"?>
<!DOCTYPE svg PUBLIC "-//W3C//DTD SVG 1.1//EN" "http://www.w3.org/Graphics/SVG/1.1/DTD/svg11.dtd">
<svg version="1.1" xmlns="http://www.w3.org/2000/svg" xmlns:xlink="http://www.w3.org/1999/xlink" x="0px" y="0px" viewBox="0 0 30 30" width="100%" height="100%" enable-background="new 0 0 30 30" xml:space="preserve" >

	<style type="text/css" >
		.shape { fill: #999999; 
			transform:scale(1); 
			transition-property: fill; 
			transition-duration: 0.25s; 
			transition-timing-function: ease; 
			cursor: pointer; }
			
		a:hover .shape { fill: #2BA6DE; 
			transform:scale(1); 
			transition-property: fill; 
			transition-duration: 0.25s; 
			transition-timing-function: ease; 
			cursor: pointer; }
	</style>

<a xlink:href="http://twitter.com/ilikeluvcomics" xlink:show="new" xlink:title="LUV Comics on Twitter">
	<rect fill="#FFFFFF" width="30" height="30"/>
	<path class="shape" display="inline" fill="#2BA6DE" d="M0,0v30h30V0H0z M22.953,10.921c0.007,0.177,0.011,0.354,0.011,0.531
		c0,5.423-4.127,11.674-11.673,11.674c-2.318,0-4.476-0.68-6.291-1.842c0.321,0.036,0.647,0.058,0.978,0.058
		c1.924,0,3.693-0.657,5.096-1.758c-1.795-0.033-3.311-1.219-3.833-2.85c0.25,0.048,0.508,0.074,0.771,0.074
		c0.375,0,0.737-0.052,1.082-0.145c-1.876-0.378-3.292-2.036-3.292-4.023v-0.052c0.554,0.307,1.186,0.492,1.858,0.514
		c-1.101-0.735-1.825-1.992-1.825-3.415c0-0.752,0.203-1.457,0.556-2.064c2.024,2.484,5.047,4.118,8.457,4.288
		c-0.069-0.301-0.105-0.612-0.105-0.936c0-2.265,1.836-4.103,4.103-4.103c1.18,0,2.247,0.498,2.996,1.296
		c0.935-0.185,1.813-0.526,2.604-0.996c-0.305,0.958-0.957,1.762-1.804,2.27c0.829-0.1,1.62-0.32,2.356-0.646
		C24.448,9.62,23.753,10.343,22.953,10.921z"/>
	
	</a>
</svg>