<?xml version="1.0" encoding="utf-8"?>
<!-- Generator: Adobe Illustrator 15.0.0, SVG Export Plug-In . SVG Version: 6.00 Build 0)  -->
<!DOCTYPE svg PUBLIC "-//W3C//DTD SVG 1.1//EN" "http://www.w3.org/Graphics/SVG/1.1/DTD/svg11.dtd">
<svg version="1.1" id="Layer_1" xmlns="http://www.w3.org/2000/svg" xmlns:xlink="http://www.w3.org/1999/xlink" x="0px" y="0px"
	 width="50px" height="50px" viewBox="0 0 50 50" enable-background="new 0 0 50 50" xml:space="preserve">
<g>
	<g>
		<path fill="#FFFFFF" d="M25,48.891c-13.173,0-23.891-10.717-23.891-23.89C1.109,11.827,11.826,1.11,25,1.11
			s23.891,10.717,23.891,23.891C48.891,38.174,38.173,48.891,25,48.891z"/>
		<path fill="#231F20" d="M25,2.11c12.623,0,22.891,10.269,22.891,22.891c0,12.621-10.269,22.89-22.891,22.89
			c-12.622,0-22.891-10.269-22.891-22.89C2.109,12.379,12.377,2.11,25,2.11 M25,0.11c-13.747,0-24.891,11.146-24.891,24.891
			c0,13.747,11.144,24.89,24.891,24.89s24.891-11.143,24.891-24.89C49.891,11.256,38.746,0.11,25,0.11L25,0.11z"/>
	</g>
	<g>
		<polygon fill="#FFFFFF" points="13.686,25.001 29.92,15.626 29.92,34.374 		"/>
		<path fill="#231F20" d="M28.92,17.359v7.642v7.641l-6.618-3.822l-6.616-3.818l6.617-3.819L28.92,17.359 M30.92,13.894
			l-9.618,5.556l-9.617,5.551l9.617,5.551l9.618,5.555V25.001V13.894L30.92,13.894z"/>
	</g>
</g>
</svg>
