<?xml version="1.0" encoding="utf-8"?>
<!-- Generator: Adobe Illustrator 15.0.0, SVG Export Plug-In . SVG Version: 6.00 Build 0)  -->
<!DOCTYPE svg PUBLIC "-//W3C//DTD SVG 1.1//EN" "http://www.w3.org/Graphics/SVG/1.1/DTD/svg11.dtd">
<svg version="1.1" id="Layer_3" xmlns="http://www.w3.org/2000/svg" xmlns:xlink="http://www.w3.org/1999/xlink" x="0px" y="0px"
	 width="200px" height="200px" viewBox="0 0 200 200" enable-background="new 0 0 200 200" xml:space="preserve">
<g>
	<path fill="#231F20" d="M148.945,173.814c0.273,0,0.471-0.381,0.236-0.574c-1.465-1.219-2.729-2.293-3.896-3.834
		c-0.842-1.111-1.047-2.328-1.115-3.678c-0.053-0.994-0.389-0.852-0.707-1.756c-0.008-0.018-0.029-0.018-0.035,0
		c-0.619,2.023-0.209,4.238,0.879,6.006C145.27,171.543,146.928,173.811,148.945,173.814z"/>
	<path fill="#231F20" d="M184.467,117.979c-0.035-0.717,1.039-1.229,1.559-1.506c0.619-0.33,1.09-0.896,1.709-1.25
		c1.063-0.607,2.604-1.223,3.23-2.338c0.131-0.229-0.084-0.543-0.354-0.457c-1.709,0.543-3.482,1.582-4.725,2.895
		c-0.734,0.779-2.227,1.422-1.953,2.729C183.996,118.35,184.48,118.281,184.467,117.979z"/>
	<path fill="#231F20" d="M184.195,122.039c1.639-0.027,2.6-0.877,3.977-1.645c1.516-0.848,3.363-1.746,4.34-3.232
		c0.225-0.342-0.197-0.629-0.5-0.5c-1.393,0.588-2.619,1.719-3.91,2.518c-1.254,0.777-2.521,2.035-3.988,2.248
		C183.76,121.479,183.85,122.047,184.195,122.039z"/>
	<path fill="#231F20" d="M67.904,125.975c0.146,0.076,0.306,0.563,0.395,0.711c0.23,0.383,0.477,0.758,0.717,1.135
		c0.256,0.406,0.625,1.006,1.182,0.723c0.232-0.117,0.326-0.41,0.266-0.65c-0.158-0.625-0.645-1.184-0.962-1.738
		c-0.201-0.35-0.474-0.842-0.849-1.086c-0.18-0.365-0.563-0.563-0.733-0.971c-0.053-0.125-0.138-0.154-0.224-0.137
		c-0.084-0.02-0.17,0.012-0.223,0.137c-0.221,0.523,0.225,0.848,0.17,1.229C67.605,125.574,67.657,125.846,67.904,125.975z"/>
	<path fill="#231F20" d="M81.475,116.488c0.291-0.115,0.594-0.342,0.715-0.645c0.184-0.221,0.268-0.521,0.209-0.879
		c0.084,0.516,1.416-0.52,1.537-0.592c1.438-0.842,3.66-0.053,4.738-1.416c0.16-0.203,0.098-0.445-0.143-0.543
		c-0.227-0.09-0.457-0.15-0.688-0.188c-0.088-0.236-0.305-0.434-0.648-0.469c-0.805-0.084-2.246-0.211-3.51-0.5
		c-0.326-0.105-0.652-0.211-0.979-0.32c-0.164-0.084-0.33-0.168-0.496-0.252c-0.076-0.041-0.156-0.076-0.232-0.115
		c-0.039-0.02-0.078-0.039-0.117-0.057c0-0.002-0.002-0.002-0.004-0.002c-0.08-0.039-0.158-0.082-0.238-0.117
		c-0.016-0.014-0.039-0.022-0.053-0.037c-0.141-0.138-0.309-0.213-0.48-0.236c-0.119-0.219-0.326-0.396-0.639-0.43
		c-0.994-0.104-2.002-0.338-3.006-0.572c-2.795-1.289-6.205-2.363-8.744-2.059c-0.471,0.057-0.954,0.375-0.918,0.918
		c-0.08-0.065-0.159-0.131-0.238-0.195c-0.139,0.066-0.229,0.18-0.29,0.307c0.046,0.047,0.063,0.166-0.046,0.254
		c-0.01-0.006-0.02-0.01-0.03-0.016c0.015-0.084,0.04-0.163,0.077-0.238c-0.046-0.048-0.117-0.009-0.12,0.217
		c-0.167-0.082-0.333-0.16-0.51-0.209c-0.472-0.13-1.011,0.114-1.478-0.064c-0.545-0.211-1.373-0.256-1.895,0.051
		c-0.275,0.161-0.421,0.416-0.564,0.676c-0.092,0.006-0.181,0.057-0.207,0.159c0.002-0.011-0.287,0.14-0.369,0.224
		c-0.139,0.139-0.229,0.348-0.303,0.557c-0.236,0.062-0.404,0.291-0.414,0.531c-0.029,0.654-0.259,1.322-0.24,1.967
		c-0.008,0.021-0.02,0.035-0.027,0.057c-0.132,0.332,0.036,0.688,0.309,0.896c0.166,0.27,0.414,0.578,0.59,0.756
		c0.117,0.117,0.262,0.166,0.424,0.176c-0.283-0.018,0.066,0.047,0.135,0.066c0.191,0.055,0.382-0.039,0.488-0.199
		c0.021-0.033,0.043-0.066,0.064-0.1c0.098-0.15,0.098-0.32,0.043-0.475c0.016-0.02,0.032-0.035,0.045-0.057
		c1.896-0.965,3.812-0.832,5.717-0.354c-1.143,1.264-3.651,2.832-3.515,4.5c-0.034,0.604,0.128,1.285,0.249,1.729
		c0.467,1.695,3.205,1.809,4.523,1.785C74.439,120.9,77.771,117.963,81.475,116.488z M81.943,113.469
		c-0.006-0.021-0.002-0.043-0.012-0.063c-0.018-0.045-0.049-0.072-0.07-0.113c0.094,0.016,0.189,0.021,0.283,0.035
		C82.076,113.371,82.01,113.422,81.943,113.469z"/>
	<path fill="#231F20" d="M114.883,144.996c-3.691,1.535-7.033,2.736-10.975,3.518c-3.338,0.662-6.617,0.363-9.963,0.807
		c-4.053,0.533-9.098-0.943-12.967,0.137c-1.09,0.307-3.152-0.404-4.533-0.363c-1.248,0.039-6.192-0.379-6.227-0.51
		c-0.076-0.299-0.384-0.441-0.669-0.381c-0.646,0.143-2.813-1.145-2.829-1.725c-0.01-0.357-0.541-0.357-0.553,0
		c-0.034,1.195,2.99,2.49,2.99,2.469c0.01,0.248,0.166,0.482,0.416,0.547c5.652,1.432,11.219,1.904,16.902,1.893
		c0.014,0.057,0.029,0.115,0.047,0.186c0.137,0.539,0.371,1.02,0.598,1.525c0.707,1.576,1.918,3.137,2.865,4.598
		c0.455,0.701,1.064,1.605,1.809,2.041c0.51,0.299,1.25,0.725,1.594,1.275c0.045,0.072,0.148,0.01,0.113-0.066
		c-0.24-0.521-0.893-1.047-1.047-1.539c-0.039-0.123-0.135-0.186-0.26-0.197c0.205,0.02-1.35-2.695-1.432-2.799
		c-0.338-0.432-0.604-0.91-0.857-1.396c0.188,0.234,0.367,0.475,0.574,0.691c0.574,0.605,1.258,1.045,1.832,1.666
		c0.291,0.316,0.635,0.631,0.996,0.932c1.041,1.771,3.043,2.789,4.666,4.021c1.305,2.953,2.641,5.809,3.646,8.924
		c0.025,0.082,0.154,0.07,0.152-0.02c-0.02-1.07-0.156-1.896-0.594-2.877c-0.375-0.834-0.074-2.225-0.709-2.898
		c-0.025-0.025-0.041-0.063-0.064-0.092c-0.336-2.246-1.84-4.982-2.75-6.734c-1.135-2.184-2.557-4.146-3.697-6.346
		c-0.182-0.35-0.451-0.734-0.766-1.105c0.252-0.016,0.5-0.023,0.752-0.039c7.041-0.436,15.504-1.352,21.17-5.738
		C115.303,145.252,115.1,144.906,114.883,144.996z M88.217,151.371c0.145-0.002,0.289-0.008,0.434-0.012
		c0.697,1.047,1.309,2.139,1.881,3.254C89.654,153.715,88.938,152.383,88.217,151.371z M93.918,156.182
		c0.396,0.791,0.939,1.598,1.521,2.387c-0.15-0.141-0.299-0.285-0.449-0.424c-2.078-1.912-3.371-4.473-4.924-6.824
		c0.361-0.014,0.721-0.021,1.084-0.039C91.49,152.471,93.49,155.328,93.918,156.182z"/>
	<path fill="#231F20" d="M62.195,49.91c0.197,0.029,0.395-0.055,0.432-0.313c0.061-0.417,1.078-0.948,1.479-1.036
		c0.149-0.033,0.313-0.166,0.385-0.318c0.027-0.018,0.056-0.029,0.08-0.049c0.105-0.012,0.197-0.047,0.275-0.109
		c0.197,0.053,0.393,0.107,0.6,0.125c0.141,0.012,0.277,0.001,0.412-0.01c0.148,0.127,0.324,0.205,0.526,0.221
		c0.101,0.042,0.208,0.068,0.321,0.061c-0.061-0.008-0.123-0.018-0.184-0.025c0.518,0.27,1.033,0.015,1.234-0.502
		c0.191-0.492,0.241-0.948,0.221-1.475c-0.037-0.922-1.252-0.986-1.504-0.228c-0.617-0.091-1.418,0.137-2.027,0.212
		c-0.291,0.037-0.627,0.219-0.729,0.514c-0.078,0.078-0.145,0.168-0.181,0.27c-0.144,0.124-0.249,0.311-0.228,0.48
		c-0.623,0.481-1.494,0.836-1.543,1.627c0,0.002-0.002,0.002-0.002,0.004c-0.002,0.014,0.004,0.023,0.002,0.037
		c-0.002,0.066-0.013,0.129-0.002,0.203C61.801,49.855,61.998,49.939,62.195,49.91z M65.619,47.91
		c-0.008-0.002-0.016-0.006-0.023-0.01c-0.025-0.056-0.052-0.111-0.076-0.168C65.545,47.8,65.585,47.852,65.619,47.91z"/>
	<path fill="#231F20" d="M115.1,42.053c-0.074-0.167-0.262-0.27-0.438-0.277c-0.053-0.01-0.088-0.016-0.123-0.02
		c-0.096-0.148-0.277-0.215-0.455-0.18c-0.162,0.047-0.287,0.014-0.379-0.098c-0.012-0.119-0.07-0.218-0.191-0.252
		c-0.918-0.267-2.041-1.088-2.072-0.748c0.021-0.228-0.168-0.412-0.365-0.479c-4.322-1.479-8.178-2.781-12.881-2.781
		c-2.301,0-4.547,0.144-6.73,0.925c-0.43,0.152-2.75,1.229-2.27,1.174c-0.461,0.053-0.707,0.379-0.639,0.838
		c-0.119-0.795,0.1,0.051-1.43,0.326c-0.15,0.027-0.197,0.188-0.18,0.316c0.012,0.08,0.023,0.161,0.033,0.241
		c0.031,0.213,0.4,0.213,0.43,0c-0.031,0.229,1.736-0.188,1.785-0.185c0.25,0.019,0.564-0.203,0.604-0.459
		c-0.061,0.398-0.311,0.266,0.354,0.084c2.68-0.738,5.113-0.867,7.787-1.365c1.104-0.207,12.467,0.929,12.533,1.615
		c0.02,0.238,0.199,0.5,0.473,0.475c0.396-0.037,2.27-0.026,2.215,0.525c-0.01,0.102,0.064,0.194,0.143,0.246
		c0.225,0.147,0.494,0.514,0.484,0.223c0.006,0.195,0.129,0.375,0.322,0.426c0.066,0.029,0.115,0.049,0.15,0.058
		c0.078,0.173,0.229,0.313,0.436,0.292c0.084-0.008,0.168-0.017,0.25-0.025C115.488,42.893,115.537,42.227,115.1,42.053z"/>
	<path fill="#231F20" d="M71.288,52.828C71.318,52.83,71.32,52.829,71.288,52.828L71.288,52.828z"/>
	<path fill="#231F20" d="M70.813,54.052c-0.008,0.438,0.135,0.91,0.401,1.222c0.007,0.041,0.013,0.08,0.031,0.147
		c0.108,0.396,0.294,0.459,0.435,0.851c0.145,0.404,0.248,0.825,0.34,1.244c0.155,0.705-0.205,1.295-0.182,1.963
		c0.025,0.81-0.502,1.45-0.6,2.131c-0.137,0.072-0.246,0.197-0.229,0.369c0.027,0.282,0.06,0.469,0.245,0.69
		c0.089,0.106,0.293,0.106,0.383,0c0.068-0.082,0.111-0.16,0.145-0.239c0.219-0.029,0.353-0.254,0.378-0.451
		c0.012-0.094,0.668-1.01,0.806-1.504c0.268-0.955,0.549-2.324,0.369-3.32c-0.107-0.596-0.225-1.784-0.704-2.28
		c-0.024-0.147-0.071-0.283-0.187-0.396c-0.284-0.287-0.321-0.543-0.438-0.904c-0.063-0.197-0.226-0.346-0.417-0.401
		c-0.002-0.017-0.009-0.032-0.012-0.05c-0.031-0.16-0.219-0.307-0.383-0.291c0.045-0.004,0.072-0.004,0.093-0.003
		c-0.041-0.003-0.128-0.015-0.284-0.063c-0.146-0.046-0.271,0.075-0.281,0.213c-0.003,0.047-0.007,0.094-0.011,0.142
		c-0.021,0.096-0.006,0.194,0.036,0.276c-0.018,0.065-0.025,0.133-0.047,0.196C70.654,53.758,70.707,53.926,70.813,54.052z"/>
	<path fill="#231F20" d="M62.271,66.419c0.082-0.166,0.207-0.29,0.349-0.394c0.024-0.004,0.05,0,0.075-0.006
		c0.262-0.035,0.584-0.222,0.541-0.541c-0.01-0.084-0.021-0.168-0.031-0.25c-0.003-0.029-0.018-0.045-0.023-0.07
		c-0.01-0.063-0.025-0.121-0.057-0.172c-0.018-0.031-0.043-0.051-0.064-0.076c-0.021-0.021-0.037-0.045-0.062-0.061
		c-0.043-0.033-0.089-0.056-0.14-0.072c0.189-2.439-0.674-4.758,1.207-6.928c0.651-0.752,3.772-3.033,4.881-2.197
		c0.445,0.336,1.021-0.414,0.597-0.773c-0.724-0.614-1.467-0.551-2.342-0.178c-0.974,0.418-2.116,0.775-2.956,1.429
		c-1.092,0.849-1.955,2.17-2.413,3.461c-0.651,1.833,0.183,3.897-0.192,5.733c-0.035,0.173,0.004,0.342,0.092,0.476
		c-0.043,0.093-0.082,0.181-0.113,0.237C61.374,66.468,61.994,66.811,62.271,66.419z"/>
	<path fill="#231F20" d="M69.822,57.311c-0.289-0.146-0.686-0.139-0.981-0.229c-0.44-0.533-1.456-0.091-2.146-0.058
		c-0.25,0.012-0.502,0.164-0.625,0.385c-0.076,0.029-0.147,0.074-0.18,0.143c-0.011,0.023-0.035,0.042-0.051,0.063
		c-0.16,0.104-0.314,0.224-0.46,0.363c-0.146,0.076-0.292,0.145-0.399,0.196c-0.334,0.162-0.569,0.478-0.777,0.771
		c-0.471,0.666-0.239,1.929-0.205,2.66c0.041,0.871,0.125,1.717,0.884,2.252c0.74,0.521,1.55,0.776,2.446,0.601
		c0.913-0.179,1.656-0.812,2.422-1.312c0.628-0.41,0.982-1.586,1.193-2.291c0.275-0.922,0.138-1.774-0.236-2.658
		C70.507,57.727,70.277,57.54,69.822,57.311z M65.641,61.857c-0.053-0.082-0.076-0.17-0.104-0.256
		c0.071,0.051,0.153,0.092,0.259,0.112c-0.042,0.063-0.078,0.132-0.109,0.203C65.671,61.896,65.654,61.88,65.641,61.857z
		 M65.602,59.635c0.217-0.273,0.449-0.514,0.732-0.716c0.116-0.083,0.229-0.171,0.338-0.265c0.01,0.002,0.012,0.006,0.023,0.006
		c0.092,0.009,0.176-0.01,0.252-0.041c0.035,0.128,0.105,0.248,0.222,0.33c0.017,0.012,0.028,0.027,0.043,0.041
		c0.038,0.354,0.067,0.709,0.015,1.063c-0.006,0.032-0.033,0.069-0.068,0.109c-0.064,0.011-0.131,0.021-0.213,0.014
		c-0.307-0.023-0.545,0.361-0.834,0.43c-0.127-0.223-0.295-0.431-0.487-0.599C65.611,59.895,65.604,59.771,65.602,59.635z
		 M65.615,63.182c0.031,0.02,0.063,0.036,0.096,0.053c-0.021-0.01-0.043-0.018-0.066-0.029
		C65.633,63.199,65.626,63.189,65.615,63.182z M67.227,63.4c0.065-0.039,0.125-0.084,0.176-0.138
		c0.047-0.024,0.086-0.058,0.127-0.088c0.031,0.021,0.064,0.036,0.099,0.054C67.492,63.297,67.359,63.357,67.227,63.4z"/>
	<path fill="#231F20" d="M88.256,53.355c-0.162,0.474,0.441,0.711,0.764,0.445c0.414-0.344,1.15-0.52,1.676-0.632
		c0.205-0.044,0.408-0.208,0.58-0.317c0.15-0.099,0.303-0.123,0.453-0.185c0.197,0.262,0.471,0.491,0.379,0.808
		c-0.041,0.148-0.059,0.258-0.045,0.359c-0.295,0.341-0.387,0.549-0.5,0.582c-0.203,0.059-0.357,0.214-0.42,0.408
		c-0.264,0.182-0.436,0.482-0.568,0.802c-0.158,0.381,0.387,0.608,0.643,0.374c0.096-0.049,0.193-0.092,0.293-0.133
		c-0.139,0.924-0.098,2.031-0.689,2.469c-0.299,0.219-0.396,0.477-0.342,0.84c0.07,0.465,0.143,0.656,0.035,1.051
		c-0.045,0.164-0.023,0.291,0.012,0.41c-0.18,0.096-0.363,0.186-0.541,0.292c-0.102,0.026-0.199,0.062-0.293,0.116
		c-0.371,0.218-0.207,0.475-0.746,0.531c-0.344,0.039-0.611,0.57-0.203,0.746c0.002-0.014,0.004-0.027,0.006-0.041
		c0.078,0.193,0.314,0.193,0.395,0c-0.102,0.246,0.482,0.074,0.582,0.039c0.18-0.065,0.311-0.193,0.432-0.33
		c0.32,0.002,0.637-0.078,0.938-0.221c0.668,0.623,1.828,1.565,2.359,0.715c0.094-0.149,0.094-0.365,0-0.517
		c-0.17-0.272-0.506-0.335-0.764-0.505c-0.385-0.252-0.719-0.611-1.039-0.939c-0.002-0.002-0.004-0.002-0.004-0.004
		c0.152-0.246,0.156-0.652,0.197-0.873c-0.168-0.098-0.158-0.18,0.033-0.246c0.197-0.199,0.311-0.494,0.428-0.742
		c0.145-0.305,0.389-0.584,0.406-0.932c0.016-0.328-0.004-1.393,0.174-1.767c0.332-0.702,0.873-1.21,1.35-1.767
		c0.125-0.064,0.209-0.108,0.211-0.109c1.35-0.729,2.41-1.934,4.002-2.137c0.441-0.057,0.791-0.159,1.135-0.295
		c1.479,0.369,3.518,1.453,4.479,1.983c0.928,0.511,1.959,1.574,2.838,2.238c0.553,0.417,2.146,1.856,3.016,3.067
		c-0.207,0.303-0.396,0.77-0.518,1.1c-0.049,0.134-0.076,0.266-0.084,0.396c-0.346,0.086-0.652,0.299-0.805,0.643
		c-0.324,0.181-0.502,0.492-0.555,0.896c-0.07,0.557,0.836,0.657,0.969,0.131c0.008-0.031,0.016-0.063,0.023-0.094
		c0.23-0.029,0.469-0.141,0.52-0.395c0.016-0.076,0.191-0.094,0.201-0.082c0.295,0.42,0.844,0.298,1.07-0.01
		c0.23,0.467,0.621,0.83,1.221,1.108c0.102,0.048,0.213,0.05,0.318,0.033c0.082,0.062,0.201,0.08,0.303,0.036
		c1.119-0.479,1.107-1.588,1.01-2.65c-0.063-0.669-0.23-1.158-0.49-1.781c-0.152-0.367-0.037-0.553-0.125-0.873
		c-0.08-0.289-0.428-0.431-0.541-0.738c-0.035-0.098-0.121-0.186-0.234-0.18c-0.084,0.006-0.168,0.01-0.25,0.017
		c-0.295,0.019-0.295,0.438,0,0.456c0.373,0.023,0.68,1.814,0.83,2.193c0.279,0.693,0.023,1.556-0.252,2.32
		c-0.184-0.654-0.504-1.393-0.729-1.843c-1.352-2.72-3.52-4.13-5.572-6.185c-1.492-1.492-3.391-1.602-4.955-2.518
		c-0.484-0.283-1.066-0.371-1.662-0.443c-0.133-0.02-0.264-0.043-0.4-0.049c-0.641-0.08-1.279-0.186-1.813-0.541
		c-0.109-0.072-0.283-0.072-0.393,0c-0.086,0.057-0.148,0.1-0.211,0.18c-0.082,0.103-0.082,0.211,0,0.313
		c0.102,0.127,0.227,0.249,0.357,0.366c-0.666,0.221-1.295,0.531-1.828,0.869c-0.66,0.418-1.467,0.818-2.17,1.287
		c-0.016-0.043-0.029-0.086-0.053-0.127c-0.266-0.446-0.668-0.721-0.563-1.289c0.08-0.428,0.174-0.828,0.195-1.264
		c0.01-0.186-0.107-0.371-0.264-0.461c-0.404-0.236-0.91-0.25-1.18,0.211c-0.318,0.543,0.182,1.262-0.115,1.692
		c-0.029,0.043-0.025,0.099-0.039,0.147c-0.066,0.025-0.133,0.045-0.201,0.08c-0.252,0.131-0.467,0.293-0.73,0.41
		c-0.582,0.26-1.141,0.358-1.648,0.723c-0.064,0.022-0.115,0.06-0.164,0.113c-0.004,0.004-0.01,0.006-0.016,0.01
		c0.002,0,0.004,0.002,0.006,0.002c-0.037,0.043-0.082,0.078-0.104,0.141C88.268,53.316,88.262,53.337,88.256,53.355z"/>
	<path fill="#231F20" d="M60.413,91.21c0.424,0.261,0.633,0.623,1.137,0.776c0.062,0.019,0.114,0.039,0.168,0.061
		c0.175,0.126,0.356,0.25,0.517,0.381c0.529,0.43-0.262,1.303-0.28,1.862c-0.021,0.563,0.832,0.668,0.972,0.131
		c0.119-0.456,0.469-1.062,0.51-1.623c0.16,0.042,0.33,0.052,0.492,0.022c0.08-0.012,0.159-0.026,0.237-0.047
		c0.067-0.015,0.134-0.041,0.196-0.08c0.332,0.113,0.691,0.168,1.029,0.236c0.201,0.04,0.355-0.193,0.203-0.352
		c-0.258-0.268-0.527-0.441-0.836-0.571c0.002-0.063,0.014-0.126,0-0.185c-0.005-0.022-0.01-0.043-0.015-0.065
		c-0.056-0.246-0.272-0.469-0.515-0.552c-0.033-0.034-0.416-0.404-0.285-0.166c-0.084-0.155-0.231-0.273-0.397-0.348
		c-0.173-0.201-0.423-0.31-0.715-0.272c-0.103-0.026-0.212-0.034-0.334-0.017c-0.058,0.008-1.062-0.561-1.271-0.655
		c-0.074-0.033-0.146-0.078-0.221-0.117c-0.049-0.044-0.109-0.081-0.188-0.103c-0.01-0.004-0.021-0.012-0.031-0.016
		c-0.434-0.263-0.859-0.605-1.213-0.916c-0.305-0.267-0.682-0.119-0.844,0.143c-0.01-0.008-0.021-0.016-0.029-0.022
		c-0.012-0.009-0.022,0.009-0.014,0.019c0.004,0.006,0.019,0.02,0.026,0.029c-0.099,0.178-0.097,0.403,0.103,0.592
		c0.178,0.17,0.373,0.334,0.576,0.485c0.271,0.214,0.553,0.413,0.848,0.599C60.094,90.681,60.104,91.02,60.413,91.21z"/>
	<path fill="#231F20" d="M72.768,90.504c-0.012-0.061-0.016-0.12-0.018-0.182c-0.003-0.008-0.006-0.018-0.01-0.026
		C72.734,90.49,72.756,90.535,72.768,90.504z"/>
	<path fill="#231F20" d="M72.751,90.322c0.028,0.08,0.028,0.154,0.019,0.182c0.153,0.785,1.104,1.441,1.682,1.82
		c0.263,0.174,0.559,0.162,0.82,0.056c0.719,0.372,1.453,0.56,1.994,0.131c0.023-0.019,0.039-0.028,0.061-0.044
		c0.227,0.1,0.502,0.139,0.734,0.157c0.076,0.081,0.166,0.169,0.293,0.265c0.133,0.102,0.316-0.064,0.273-0.21
		c-0.129-0.42-0.611-0.817-0.99-1.024c-1.066-0.584-2.14-1.344-3.188-2.051c-0.18-0.312-0.514-0.547-0.881-0.488
		c-0.036-0.022-0.075-0.047-0.15-0.109c-0.188-0.154-0.328-0.179-0.568-0.225c-0.146-0.028-2.27-0.596-2.242-0.545
		c-0.076-0.139-0.25-0.246-0.412-0.236c-0.582,0.036-1.225-0.012-1.791,0.082c-0.082,0.013-0.127,0.113-0.106,0.188
		c0.022,0.076,0.044,0.153,0.065,0.231c0.002,0.008,0.012,0.005,0.016,0.013c0.016,0.123,0.098,0.262,0.229,0.28
		c0.73,0.103,0.947,0.04,1.441,0.362c0.708,0.462,1.567,0.354,2.305,0.799c0.178,0.107,0.205,0.104,0.344,0.271
		c0.018,0.021,0.031,0.045,0.041,0.069c0-0.022,0-0.04,0.002-0.067C72.74,90.26,72.75,90.29,72.751,90.322z M73.587,89.129
		C73.65,89.15,73.666,89.176,73.587,89.129L73.587,89.129z"/>
	<path fill="#231F20" d="M104.066,59.414c0.32-0.444,0.449-0.967,0.621-1.48c0.488-1.467-0.27-1.978-1.045-3.113
		c-0.287-0.42-0.65-0.336-1.088-0.566c-0.418-0.221-0.814-0.85-1.359-0.813c-0.324,0.021-0.684-0.272-1.016-0.395
		c-0.537-0.195-1.307,0.033-1.859,0.061c-0.402,0.021-0.67,0.131-0.898,0.297c-0.225,0.106-0.439,0.236-0.641,0.357
		c-0.555,0.336-0.52,0.463-0.691,0.831c-0.373,0.31-0.713,0.661-0.711,1.134c0,0.166,0,0.334,0.002,0.502
		c-0.031,0.146-0.059,0.305-0.084,0.483c-0.139,0.935,0.842,2.251,1.744,3.063c0.063,0.063,0.129,0.123,0.199,0.172
		c0.184,0.152,0.359,0.287,0.518,0.379c1.043,0.623,3.91,1.041,4.916,0.129C103.098,60.072,103.73,59.881,104.066,59.414z
		 M99.002,54.529c0.051,0.072,0.1,0.156,0.141,0.277c0.047,0.137,0.139,0.262,0.236,0.383c0.016,0.063,0.043,0.11,0.053,0.18
		c0.01,0.078,0.053,0.144,0.105,0.201c-0.143,0.24-0.377,0.504-0.514,0.883c-0.354,0.982-1.799-0.711-1.756-0.1
		c-0.012-0.183-0.021-0.396-0.176-0.522c-0.018-0.015-0.025-0.007-0.039-0.015c0.189-0.213,0.934-1.336,1.516-1.461
		c0.041,0.004,0.074,0.008,0.127,0.012C98.805,54.398,98.906,54.453,99.002,54.529z M100.828,58.182
		c-0.389,0.104-0.813,0.131-1.152,0.125c-0.014,0-0.045-0.001-0.068-0.002c0.268-0.087,0.557-0.109,0.838-0.121
		c0.117-0.006,0.225-0.043,0.322-0.093C100.787,58.122,100.805,58.154,100.828,58.182z M97.531,57.805
		c-0.018-0.045-0.035-0.091-0.055-0.135c0.061,0.02,0.125,0.039,0.191,0.059c0,0.057,0,0.115,0.008,0.168
		c-0.006,0-0.014,0-0.02-0.002C97.615,57.863,97.572,57.833,97.531,57.805z M102.619,56.167c-0.016,0.003-0.033,0.012-0.051,0.017
		c-0.01-0.027-0.021-0.054-0.033-0.082C102.563,56.122,102.592,56.145,102.619,56.167z"/>
	<path fill="#231F20" d="M100.037,62.703c-0.012-0.043-0.049-0.068-0.092-0.07c-0.195-0.009-0.303-0.172-0.5-0.184
		c-0.035-0.002-0.041,0.049-0.008,0.059c0.398,0.116,0.393,0.53,0.809,0.596c0.465,0.071,1.096-0.063,1.521-0.25
		c0.125-0.055,0.07-0.228-0.035-0.263C101.434,62.486,100.115,62.964,100.037,62.703z"/>
	<path fill="#231F20" d="M204.984,168.939c-0.49-0.469-1.139-0.404-1.639,0.064c0.16-0.148-0.424,0.068-0.531,0.146
		c-0.225,0.168-0.533,0.277-0.684,0.533c-0.209,0.357-0.584,0.559-1.01,0.68c-0.666-0.082-1.301-0.209-1.992-0.295
		c-0.242-0.48-0.584-0.908-0.977-1.301c-0.324-0.324-1.705-0.414-1.609-0.287c-0.043-0.057-0.254-0.176-0.563-0.336
		c2.584-1.742,3.684-5.695,4.676-8.652c-0.17,1.779-0.287,3.553-0.023,5.32c0.047,0.322,0.557,0.299,0.625,0
		c0.799-3.543,1.232-7.482,1.324-11.465c0.967-4.299,1.012-8.506,0.348-12.932c0.207-0.557,0.332-1.121,0.322-1.689
		c-0.006-0.326-0.191-0.635-0.453-0.842c0-0.221-0.021-0.436-0.029-0.654c0.605-1.279,1.121-2.592,1.438-3.975
		c0.133-0.578-0.158-1.008-0.566-1.193c0.309-0.844,0.582-1.697,0.793-2.563c0.158-0.646-0.346-1.172-0.889-1.277
		c0.033-0.516-0.014-1.037-0.146-1.551c0.184,0.027,0.367,0.045,0.547,0.037c0.578-0.021,0.881-0.598,0.633-1.102
		c-0.455-0.918-1.152-1.514-1.961-2.125c-0.83-0.627-1.512-1.322-2.299-2.008c-0.658-0.57-1.602-1.281-2.506-1.357
		c-0.107-0.061-0.23-0.104-0.367-0.119c-1.01-0.121-2.217-1.064-2.691-1.949c-0.004,0.008-0.008,0.018-0.012,0.025
		c-0.154-0.279-0.65-0.258-0.654,0.152c-0.008,0.773,0.385,1.338,0.893,1.82c-1.084,0.123-2.168,0.004-3.129,0.596
		c-1.219,0.752-1.967,2.035-3.273,2.688c-0.637,0.318-0.861,0.621-1.086,0.982c-0.313-0.203-0.895,0.055-0.775,0.547
		c0.52,2.145,2.211,4.492,2.535,6.846c-0.018,0.316-0.047,0.629-0.094,0.939c-2.867,1.426-6.648,3-10.221,3.482
		c0.758-1.908,3.002-3.871,4.082-4.596c1.205-0.807,2.725-1.43,3.727-2.504c0.039-0.043,0.018-0.131-0.051-0.123
		c-2.6,0.266-4.297,1.34-6.344,2.879c-0.918,0.691-1.959,2.111-2.545,3.561c-0.076-0.33-0.152-0.648-0.229-0.961
		c0.859-2.295,2.182-4.502,4.322-5.518c0.828-0.307,1.639-0.506,2.295-0.576c1.02-0.109,1.066-1.666,0-1.627
		c-1.477,0.057-2.906,0.449-4.09,1.262c-1.314,0.666-2.465,1.582-3.16,2.732c-0.027-0.813,0.039-1.662,0.275-2.611
		c0.418-1.68,1.742-3.051,1.51-4.818c-0.004-0.035-0.045-0.049-0.066-0.02c-2.531,3.527-4.119,8.461-2.365,12.611
		c0.002,0.006,0.002,0.012,0.004,0.016c0.002,0.008,0.006,0.008,0.008,0.014c0.035,0.084,0.066,0.168,0.104,0.252
		c0.016,0.057,0.023,0.115,0.037,0.17c-2.459-0.074-4.662-0.883-6.195-2.869c0.943-1.168,1.904-2.33,2.635-3.725
		c1.336-2.555,2.438-5.225,3.285-7.969c0.789-1.064,1.648-2.039,2.459-2.783c1.807-1.668,2.988-3.537,5.045-5.031
		c1.551-1.129,3.314-2.643,5.049-3.434c0.25-0.114,0.309-0.35,0.256-0.568c0.002-0.006,0.006-0.009,0.006-0.014
		c1.582-8.979,2.277-18.089,3.127-27.15c0.498-5.304,1.35-11.418,0.576-17.052c0.066-6.084-1.521-11.95-3.311-18.146
		c-1.408-4.877-2.678-9.723-4.244-14.563c-0.721-2.227-2.041-3.76-3.57-5.193c0.021-0.256,0.033-0.517,0.018-0.797
		c-0.037-0.629-1.143-1.227-1.152-1.469c-0.021-0.443-0.295-0.869-0.746-0.98c-0.162-0.039-1.523-2.635-1.859-3.328
		c-0.859-1.787-2.807-2.941-4.494-4.092c-1.535-1.826-3.441-3.358-5.271-4.949c-2.396-2.084-3.896-3.956-6.652-5.62
		c-2.602-1.572-4.693-3.843-7.332-5.39c-2.051-1.201-4.523-2.103-6.781-2.834c-0.645-0.41-1.611,0.729-0.723,1.301
		c0.455,0.291,0.906,0.582,1.359,0.871c-1.689-0.659-3.412-1.272-5.131-1.623c-1.59-0.322-2.947-1.49-4.605-1.422
		c-0.314,0.013-0.398,0.484-0.076,0.563c0.102,0.023,0.199,0.048,0.301,0.072c0.076,0.018,0.145-0.049,0.125-0.127
		c0.221,0.918,1.637,1.853,3.453,2.725c-0.219-0.018-0.438-0.041-0.654-0.056c-0.09-0.015-0.18-0.027-0.27-0.044
		c-2.316-0.813-4.664-1.502-7.129-1.633c-0.74-0.041-1.094,0.641-0.986,1.233c-3.578-0.138-7.162-0.222-10.764-0.229
		c-0.389-0.002-0.648,0.17-0.813,0.408c-0.24,0.06-0.479,0.125-0.709,0.229c-0.314,0.142-0.475,0.438-0.5,0.756
		c-0.877-0.155-1.752-0.288-2.623-0.392c-1.779-0.697-3.576-1.309-5.35-1.648c-0.113-0.021-0.219-0.018-0.32-0.005
		c-0.313-0.078-0.623-0.161-0.938-0.215c-1.016-0.177-1.662,1.124-0.719,1.704c0.395,0.244,0.814,0.478,1.225,0.714
		c-0.824-0.259-1.664-0.47-2.527-0.593c-0.523-0.073-0.906,0.257-1.027,0.645c-0.104-0.191-0.283-0.334-0.539-0.384
		c0-0.44-0.293-0.864-0.91-0.886c-2.891-0.098-5.619,0.045-8.459,0.509c-0.027-0.083-0.068-0.162-0.121-0.236
		c0.076-0.047,0.156-0.088,0.232-0.136c0.775-0.484,0.27-1.663-0.613-1.458c-1.555,0.36-3.041,1.044-4.482,1.851
		c-6.115,2.172-10.533,5.851-15.145,9.889c-5.362,3.316-9.135,8.808-11.35,14.787c-1.408,2.029-2.615,4.223-3.445,6.303
		c-2.278,5.699-5.791,10.07-8.404,15.48c-1.448,2.996-1.498,6.152-2.475,9.25c-0.172,0.545-0.317,1.236-0.145,1.791
		c0.661,2.113-0.023,3.868-0.896,5.846c-0.174,0.396-0.065,4.154,0.051,4.143c-0.231,0.023-0.231,0.337,0,0.359
		c0.084,0.009,0.168,0.018,0.25,0.025c0.119,0.012,0.197-0.103,0.207-0.205c0.226-2.367,1.162-4.065,1.938-6.221
		c0.765-2.122-0.332-3.941,0.37-6.102c0.534-1.645,1.285-2.032,1.313-3.68c0.043-2.476,0.927-4.168,1.979-6.353
		c0.406-0.845,0.959-1.517,1.526-2.165c-0.188,0.75-0.363,1.503-0.502,2.264c-0.504,2.791-0.912,5.037-0.998,8.004
		c-0.049,1.7,0.236,3.496,0.396,5.273c-0.014,0.076-0.021,0.152-0.025,0.227c-0.146,3.307-1.892,7.178-3.219,10.166
		c-1.637,3.682-4,6.901-5.293,10.75c-0.082,0.244,0.209,0.459,0.422,0.371c-0.18,0.508-0.342,1.021-0.498,1.526
		c-0.733,1.37-1.269,2.964-1.651,4.646c-0.358,0.998-0.706,2.092-0.948,3.18c0.321-1.832,0.668-3.633,1.012-5.381
		c0.006-0.032-0.037-0.055-0.056-0.023c-2.709,4.754-2.806,9.536-3.092,14.95c-0.265,4.997-0.14,9.401,1.065,14.286
		c1.067,4.318,2.168,7.51,4.773,11.215c0.843,2.02,1.826,3.947,3.146,5.713c0.084,0.689,0.125,1.395,0.068,2.133
		c-0.152,2.016,1.141,1.971,0.463,4.074c-0.406,1.256,0.322,4.412-0.462,5.082c-2.259,1.926-2.092,3.143-2.067,5
		c0.026,1.887-2.316,2.436-2.728,4.111c0.063-0.256-0.705,1.969-0.452,1.848c-0.121,0.059-0.035,0.266,0.092,0.219
		c0.063-0.023,0.125-0.049,0.189-0.072c-0.018,0.035-0.035,0.07-0.052,0.104c0.097,0.018,0.202-0.021,0.228-0.129
		c0.18-0.729,0.717-1.633,1.178-2.191c0.711-0.859,2.051-1.428,2.636-2.426c0.142-0.242,0.038-0.984,0.138-1.055
		c0.307-0.213,0.45-0.602,0.248-0.941c-0.816-1.379,2.605-3.799,2.766-5.527c0.059-0.621,0.364-1.807,0.603-3.051
		c0.063,0.633,0.108,1.27,0.104,1.926c-0.01,1.168,0.553,2.279,0.565,3.436c0.013,1.184-0.615,2.9,0.053,4.039
		c0.308,0.523,0.761,0.932,1.048,1.475c0.293,0.555-0.707,1.482-0.175,2.205c0.317,0.432,0.546,0.969,1.13,1.016
		c1.659,0.137,1.348,0.906,1.372,2.33c0.013,0.756,1.214,4.16,1.021,2.936c0.037,0.242,0.271,0.41,0.484,0.484
		c0.492,0.172,1.873,2.723,2.498,3.268c0.184,0.16,0.536,0.012,0.441-0.258c-0.895-2.539-3.253-5.621-2.961-8.299
		c0.109-1.008-0.59-1.488-1.354-1.699c-1.02-0.279-0.811-2.121-0.787-3.182c0.023-1.025-1.047-1.082-0.947-2.25
		c0.212-2.467-0.414-4.805-0.582-7.25c-0.059-0.854-0.225-1.709-0.438-2.563c0.249,0.254,0.512,0.498,0.774,0.74
		c-0.199,0.383-0.026,0.969,0.54,0.971c0.176,0.002,0.352,0.002,0.527,0.002c1.028,0.965,2.26,2.35,2.649,3.508
		c0.11,0.328,0.397,0.459,0.701,0.398c0.003,0,0.006,0.002,0.009,0.002c0.064,0.375,0.725,0.447,0.744-0.059
		c0.229-5.938-2.15-12.434-4.002-18.016c-1.479-4.455-2.965-8.949-4.297-13.462c-0.854-2.89-1.729-5.672-2.311-8.635
		c-0.619-3.163-0.154-6.216-0.373-9.388c-0.013-0.178-0.084-0.319-0.186-0.426c0.004-0.213,0.014-0.431,0.015-0.641
		c0.021-5.003,1.955-10.458,4.128-14.934c0.735-1.516,2.146-4.197,2.334-6.041c0.246-0.789,0.436-1.611,0.743-2.311
		c0.61-1.384,0.608-3.133,0.584-4.703c0.237-0.836,0.423-1.701,0.498-2.621c0.417-5.17,0.259-10.322,1.336-15.408
		c0.005-0.021,0-0.039,0.003-0.061c0.971-2.016,2.241-3.795,3.522-5.792c2.097-3.265,4.136-7.215,5.487-10.827
		c0.705-1.886,1.854-4.945,3.465-7.271c1.477-1.223,3.049-2.396,4.676-3.52c1.031-0.574,2.076-1.105,3.063-1.727
		c1.93-0.486,3.936-1.536,5.805-2.725c0.816-0.427,1.592-0.895,2.291-1.379c2.088-1.033,4.221-1.982,6.529-2.617
		c1.068-0.293,2.168-0.429,3.256-0.563c0.795,0.137,1.664-0.048,2.514-0.396c0.549-0.123,1.082-0.281,1.6-0.496
		c2.832,0.496,5.578,1.455,8.469,1.463c0.35,0.002,0.684,0.037,1.008,0.093c0.398,0.114,0.797,0.226,1.197,0.329
		c0.615,0.236,1.191,0.56,1.75,0.928c1.135,2.691,3.141,5.214,4.988,7.234c3.051,3.336,5.971,7.074,9.279,10.156
		c1.824,1.699,3.656,3.418,5.529,5.082c1.896,4.981,3.373,10.117,4.252,15.553c0.871,5.375,0.551,11.498-0.523,16.733
		c-0.641,3.122-2.133,6.269-2.365,9.386c-0.029,0.4,0.604,0.479,0.695,0.094c0.533-2.268,1.77-4.123,2.176-6.452
		c0.26-1.483,0.467-3.091,0.963-4.511c1.381-3.959,0.998-10.737,0.355-14.793c-0.758-4.807-1.834-9.351-3.172-13.953
		c0.1,0.082,0.199,0.164,0.301,0.246c1.002,2.777,2.119,5.539,2.924,8.442c0.398,1.437,0.943,2.765,1.6,4.009
		c0.115,0.494,0.23,0.985,0.361,1.465c1.518,5.613,2.756,11.168,4.906,16.49c-0.221,1.021-0.568,2.01-0.963,3.016
		c-1.033,2.643,0.785,4.984-0.193,7.673c-0.928,2.542,1.027,4.007,0.029,6.603c-0.688,1.785,0.813,3.986-0.107,5.203
		c-0.902,1.193-0.568,2.04,0.068,3.319c0.369,0.741-0.418,1.979-0.342,2.897l0,0c-0.01,0.125,0.084,0.213,0.199,0.233
		c0.018,0.003,0.035,0,0.053,0s0.035,0.002,0.051,0c0.115-0.021,0.211-0.108,0.201-0.233l0,0c0.061-0.723,1.777-1.93,1.156-2.99
		c-1.109-1.895,0.059-2.887,0.432-4.598c0.033-0.15,0.035-0.34-0.063-0.472c-1.219-1.665,0.16-4.095,0.121-5.94
		c-0.055-2.511-2.361,0.565-0.059-4.656c0.234-0.529,0.348-1.197,0.266-1.779c-0.281-1.998-0.002-3.766,0.379-5.505
		c0.262,0.543,0.514,1.089,0.801,1.627c0.195,0.366,0.408,0.722,0.631,1.073c-0.984,3.466-1.164,7.47-1.252,10.99
		c-0.111,4.545,0.941,9.153,0.938,13.625c-0.004,2.307,0.244,4.582,0.24,6.875c0-0.181-0.738,4.858-0.643,4.709
		c-1.277,1.994,0.66,2.153,0.182,4.371c-0.258,1.201,0.051,2.658,0.496,4.01c-1.771,2.426-3.275,5.014-5.42,7.184
		c-3.287,3.326-6.645,8.266-10.703,10.557c-0.139,0.078-0.256,0.256-0.24,0.42c-0.039-0.451-1.064,0.826-1.807,1.098
		c-0.086,0.033-0.123,0.105-0.109,0.195c-0.039,0.043-0.078,0.088-0.117,0.133c-0.076,0.012-0.076,0.139,0,0.15
		c0.078,0.012,0.158,0.023,0.238,0.037c0.059,0.01,0.135-0.014,0.145-0.082c0.045-0.281,1.939-0.834,2.137-0.816
		c0.27,0.023,0.445-0.229,0.465-0.465c-0.021,0.26,3.266-2,3.273-2.012c2.119-2.336,4.188-4.863,6.543-6.957
		c2.391-2.127,4.523-4.641,6.406-7.336c0.025,0.063,0.055,0.131,0.08,0.191c0.104,0.244,0.525,0.123,0.504-0.137
		c-0.025-0.262-0.049-0.521-0.072-0.781c0.211-0.313,0.406-0.637,0.609-0.955c-0.01,0.154-0.02,0.314-0.029,0.486
		c-0.043,0.693-0.082,1.447-0.109,2.227c-0.352,0.555-0.715,1.105-1.004,1.674c-0.754,1.482-1.348,2.756-2.664,3.852
		c-0.342,0.283-0.688,0.559-1.023,0.848c-0.818,0.705-0.164,0.203-0.076,0.609c-0.033-0.15-0.27-0.15-0.301,0
		c-0.018,0.031-0.031,0.063-0.047,0.094c-0.309,0.26,0.242,0.707,0.438,0.338c0.496-0.939,1.74-1.504,2.496-2.248
		c0.803-0.787,1.539-1.66,2.148-2.607c0.004,0.27,0.008,0.541,0.016,0.813c-0.033,0.055-0.064,0.109-0.102,0.162
		c-1.012,1.539-2.193,2.973-3.271,4.465c-0.365,0.506,0.445,1.117,0.859,0.662c0.939-1.033,1.82-2.201,2.639-3.369
		c0.109,1.121,0.281,2.201,0.564,3.152c1.008,3.375,1.752,6.605,2.709,9.766c-0.658,1.648-1.244,3.313-1.734,5.006
		c-1.354,1.521-2.594,3.139-3.686,4.83c-0.723,1.121-1.418,2.494-1.984,3.971c-0.18,0.27-0.363,0.535-0.537,0.811
		c-1.947,3.07-4.67,6.658-4.705,10.449c-0.006,0.404,0.563,0.459,0.684,0.092c0.816-2.529,2.006-4.869,3.396-7.1
		c-0.275,1.777-0.256,3.521,0.215,5.021c0.016,0.051,0.088,0.051,0.105,0c0.982-3.137,1.615-6.186,2.594-9.232
		c0.535-0.711,1.082-1.414,1.633-2.115c-1.814,4.363-2.627,9.125-2.072,13.834c0.043,0.377,0.543,0.377,0.588,0
		c0.375-3.18,0.945-6.096,1.703-8.939c-0.354,2.748-0.523,5.479,0.049,8.383c0.43,2.168,3.396,8.41,6.682,7.469
		c-0.088,0.023-0.088,0.148,0,0.174c0.076,0.023,0.152,0.045,0.23,0.066c0.125,0.037,0.264-0.117,0.18-0.232
		c-0.559-0.771-0.785-1.135-1.59-1.682c-3.346-2.27-4.229-5.68-4.564-9.488c-0.305-3.428,0.381-7.746,1.23-11.479
		c0.299-0.771,0.609-1.553,0.938-2.338c0.77-0.971,1.525-1.945,2.252-2.932c0.4,0.973,0.848,1.943,1.352,2.912
		c-0.457,2.592-0.125,5.168,1.721,7.361c0.104,0.121,0.271,0.133,0.414,0.074c0,0.004,0.002,0.006,0.002,0.01
		c-0.406,0.242-0.807,0.49-1.195,0.721c-2.1,1.227-4.184,3.24-5.023,5.592c-0.34-0.811-0.096-1.555-0.111-2.424
		c-0.002-0.07-0.096-0.076-0.117-0.016c-0.438,1.143-0.617,1.768-0.123,2.963c0.035,0.082,0.094,0.168,0.137,0.254
		c-0.016,0.076-0.047,0.146-0.061,0.225c-0.469,2.438,1.275,5.111,3.309,6.268c1.914,1.086,4.371-0.094,6.004-1.084
		c0.328-0.199,0.223-0.814-0.209-0.771c-0.547,0.055-1.309,0.176-1.77,0.451c-1.943,1.168-4.018,0.357-5.199-1.348
		c-0.506-0.729-0.756-1.465-0.814-2.193c0.146,0.123,0.295,0.244,0.439,0.334c1.705,1.084,4.586,1.236,6.01-0.414
		c0.145-0.168,0.012-0.467-0.229-0.393c-1.727,0.533-3.32,1.174-5.109,0.396c-0.355-0.156-0.74-0.457-1.088-0.803
		c0.141-0.994,0.633-1.963,1.375-2.855c1.168-1.406,2.592-2.496,4.145-3.369c1.01,3.275,2.49,6.223,5.402,7.625
		c-0.02,1.201,0.145,2.371,0.504,3.486c-0.479,0.035-0.936,0.359-0.961,0.996c0.021-0.51-2.373,1.914-2.379,1.92
		c-2.498,2.275-4.809,4.244-7.686,6.039c-4.975,3.107-9.566,7.178-14.26,10.734c-3.807,2.887-8.133,5.318-11.711,8.479
		c-1.762,1.557-3.738,2.814-5.441,4.432c-1.76,1.668-3.221,3.912-4.938,5.689c-0.586,0.605,0.381,1.545,0.914,0.914
		c0.039-0.045,0.078-0.09,0.115-0.135c0.094-0.111,0.139-0.268,0.119-0.41c0.156,0.086,0.313,0.174,0.471,0.262
		c0.248-0.189,0.494-0.383,0.74-0.574c-0.109,0.471,0.406,0.98,0.914,0.689c0.629-0.363,1.205-0.789,1.766-1.238
		c-0.092,0.086-0.184,0.172-0.271,0.258c-0.809,0.775,0.229,2.098,1.184,1.535c0.125-0.074,0.24-0.162,0.361-0.242
		c-0.26,0.484-0.506,0.967-0.729,1.432c-0.236,0.496,0.459,0.92,0.746,0.436c0.701-1.18,1.354-2.385,2.057-3.561
		c-0.174,0.291,1.283-0.797,2.004-1.598c1.191-0.719,2.309-1.543,3.484-2.24c0.334-0.131,0.619-0.254,0.793-0.367
		c0.182-0.121,0.375-0.238,0.574-0.357c0.336-0.15,0.678-0.289,1.033-0.4c0.613-0.197,1.344-0.285,2.014-0.488
		c0.014,0.527,0,1.049-0.068,1.547c-3.281,1.475-6.598,2.807-9.736,4.613c-0.357,0.207-0.232,0.885,0.225,0.828
		c2.363-0.291,4.814-1.117,7.188-2.104c-0.018,0.014-0.035,0.029-0.053,0.045c-0.637,0.561,0.031,1.758,0.846,1.451
		c2.021-0.758,3.387-2.512,5.33-3.537c2.014-1.063,4.063-1.965,6.113-2.881c-0.875,1.641-3.127,3.438-4.324,4.824
		c-1.963,2.27-3.479,4.809-4.838,7.471c-0.285,0.559,0.422,1.158,0.887,0.686c1.77-1.807,3.459-3.758,5.043-5.764
		c0.313,0.348,0.82,0.467,1.189-0.004c0.363-0.461,0.732-0.916,1.1-1.373c0.176,0.102,0.381,0.143,0.588,0.131
		c-0.061,0.814,0.967,1.488,1.596,0.795c0.053,0.102,0.121,0.189,0.201,0.26c-1.438,2.004-2.9,3.992-4.373,6.01
		c-0.359,0.49,0.326,1.094,0.805,0.805c4.156-2.518,6.674-6.373,9.074-10.389c2.748-0.291,6.137-2.816,8.061-4.131
		c1.244-0.852,2.66-1.332,4.064-1.811c-0.273,0.596-0.533,1.201-0.781,1.818c-1.721,0.607-3.387,1.385-5.043,2.17
		c-1.316,0.627-2.537,1.289-3.629,2.25c-0.625,0.549-2.934,2.959-3.828,3.205c-0.148,0.041-0.109,0.25,0.035,0.26
		c2.133,0.154,4.479-2.598,6.246-3.529c1.604-0.844,3.432-1.451,5.217-2.121c-1.52,2.836-3.91,5.279-5.277,8.188
		c-0.309,0.654,0.469,1.334,1.027,0.793c1.207-1.17,2.264-2.42,3.221-3.725c0.152,0.518,0.703,0.895,1.268,0.533
		c0.617-0.395,1.141-0.91,1.604-1.498c0.361,0.439,1.129,0.545,1.471-0.07c0.086-0.154,0.17-0.313,0.256-0.467
		c0.27,0.158,0.617,0.18,0.914,0.016c-0.256,0.473-0.482,0.963-0.652,1.484s0.211,1.059,0.693,1.221
		c-0.854,1.234-1.676,2.488-2.432,3.783c-0.309,0.527,0.379,0.998,0.813,0.625c2.803-2.412,5.328-5.672,7.52-9.061
		c3.098-0.912,6.314-2.691,8.986-4.361c1.176-0.736,2.73-0.979,4.172-1.346c-0.213,0.365-0.424,0.734-0.643,1.098
		c-1.645,0.102-6.145,2.203-7.066,2.846c-2.205,1.533-5.225,2.59-6.615,5.045c-0.182,0.322,0.246,0.656,0.51,0.395
		c1.434-1.428,4.346-2.777,6.178-3.656c1.475-0.707,2.789-1.527,4.391-1.973c0.395-0.107,0.826-0.287,1.27-0.479
		c-0.9,1.451-1.803,2.898-2.629,4.4c-0.336,0.611,0.115,1.348,0.717,1.422c-0.006,0.021-0.014,0.045-0.018,0.066
		c-0.109,0.568,0.344,1.102,0.85,1.141c0.129,0.588,1.002,0.893,1.443,0.244c0.006-0.01,0.01-0.018,0.016-0.025
		c0.33,0.088,0.709,0.045,0.992-0.184c0.527-0.422,1.002-0.896,1.451-1.396c0.121,0.314,0.369,0.574,0.664,0.67
		c0.012,0.793,1.02,1.441,1.635,0.725c0.324-0.377,0.617-0.775,0.914-1.176c0.098,0.316,0.367,0.541,0.686,0.623
		c-0.02,0.074-0.045,0.146-0.063,0.221c-0.143,0.57,0.502,0.859,0.914,0.533c1.961-1.561,2.971-3.602,3.988-5.869
		c0.881-1.961,3.396-3.906,3.449-6.174c0.07-2.914,0.486-6.004,0.486-8.844c0-0.42-0.186-0.801-0.459-1.154
		c-0.008-0.051-0.002-0.094-0.016-0.146c-0.383-1.52-1.699-2.445-2.771-3.516c-0.369-0.367-0.846-0.393-1.24-0.223
		c-0.162-0.326-0.42-0.627-0.723-1.064c-0.191-0.277-0.459-0.385-0.789-0.32c0.223-0.043,0.383-0.518,0.484-0.957
		c0.09-0.141,0.119-0.309,0.096-0.469c0.014-0.086,0.025-0.162,0.035-0.215c0.047-0.303-0.08-0.561-0.275-0.721
		c0.016-0.055,0.041-0.109,0.045-0.164c0.604-0.223,1.211-0.436,1.832-0.598c1.764-0.463,2.896,0.201,4.352-1.072
		c0.465-0.406-0.141-1.178-0.654-0.85c-0.146,0.094-0.311,0.178-0.469,0.264c0.303-0.521-0.033-1.213-0.611-1.494
		c0.012-0.033,0.021-0.066,0.035-0.104c0.232-0.074,0.479-0.162,0.756-0.268c0.137-0.051,0.264-0.133,0.355-0.248
		c0.148-0.063,0.301-0.123,0.455-0.168c0.52-0.008,1.105-0.65,1.354-1.061C205.141,169.281,205.113,169.064,204.984,168.939z
		 M170.449,161.475c-0.268-0.148-0.537-0.299-0.785-0.455c0.002-0.008,0.004-0.016,0.006-0.023c0.338-1.078,0.389-2.172,0.602-3.271
		c0.391,0.197,0.857,0.166,1.215-0.203C170.932,158.822,170.596,160.152,170.449,161.475z M168.066,154.293
		c-0.627-0.891-1.277-1.766-1.895-2.66c0.215-0.074,0.428-0.15,0.643-0.221c0.42-0.137,0.439-0.744,0-0.869
		c-0.486-0.141-0.961-0.158-1.428-0.119c-0.404-0.68-0.656-1.428-0.795-2.219c0.42,0.365,0.875,0.543,1.516,1.359
		c0.947,1.209,3.443,0.834,3.939,2.379c0.207,0.641,0.438,0.924,0.809,1.123c-0.246,0.279-0.479,0.547-0.691,0.803
		C169.627,153.801,168.941,153.98,168.066,154.293z M156.902,77.584c0.225,0.277,0.445,0.555,0.658,0.838
		c0.082,0.109,0.166,0.215,0.25,0.324c1,2.141,2.186,4.188,3.508,6.054c-1.072,2.003-2.936,4.368-2.936,5.396
		c0,1.48,2.045,3.056,0.26,4.636c-0.609,0.539-0.814,1.022-0.992,1.745c-0.045,0.183-0.008,0.423,0.146,0.55
		c0.563,0.463,1.363,2.14,1.793,2.81c0.1,0.153,0.281,0.241,0.465,0.188c0.078-0.022,0.154-0.045,0.23-0.067
		c0.186-0.053,0.252-0.191,0.24-0.328c0.012-0.138-0.057-0.277-0.24-0.33c-0.705-0.205-1.146-2.416-1.578-2.933
		c0.215,0.255,1.518-1.563,1.656-1.81c1.52-2.7-1.215-5.719,2.041-7.894c0.076-0.051,0.156-0.125,0.236-0.21
		c0.598,0.74,1.213,1.445,1.846,2.102c0.961,0.996,1.922,1.988,2.895,2.961c0.025,0.104,0.049,0.215,0.074,0.316
		c0.688,2.672-1.574,5.402-3.717,6.943c-0.434,0.313-0.068,0.908,0.412,0.705c2.225-0.943,4.525-3.805,4.93-6.305
		c0.885,0.84,1.785,1.651,2.713,2.426c-0.924,2.805-3.041,4.509-4.045,7.472c-0.068,0.207,0.199,0.324,0.342,0.199
		c2.402-2.114,4.088-4.026,5.072-6.572c0.076,0.058,0.15,0.117,0.227,0.175c-0.641,3.574-3.059,6.418-6.387,7.994
		c-2.504,1.188-2.898,2.811-6.355,2.033c-0.695-0.157-1.531-0.063-2.33,0.052c-0.271-0.887-0.465-1.821-0.541-2.825
		c-0.168-2.166,0.234-5.41-0.547-7.397c-1.553-3.95-0.842-6.591,0.188-10.548C158.09,83.686,157.447,80.459,156.902,77.584z
		 M148.844,60.941c-0.43-2.496-0.57-4.932-0.641-7.408c0.293,0.293,0.594,0.58,0.896,0.863c-0.02,0.373-0.053,0.75-0.119,1.135
		c-0.32,1.822-0.049,4.097,0.111,6.123C149.006,61.418,148.926,61.178,148.844,60.941z M139.641,33.037
		c-0.426-1.254-0.938-2.834-1.389-4.36c0.313,0.351,0.621,0.714,0.945,1.048c0.047,0.047,0.102,0.077,0.154,0.106
		c0.574,0.784,1.137,1.577,1.689,2.379c0.535,1.065,1.039,2.151,1.523,3.229C141.613,34.607,140.635,33.811,139.641,33.037z
		 M173.885,118.633c0.131-0.223,0.264-0.443,0.393-0.666c-0.109,0.807-0.27,1.602-0.451,2.34c-0.033,0.137-0.016,0.252,0.021,0.357
		c-0.092,0.367-0.184,0.734-0.279,1.1c0.02-0.072-0.018-0.131-0.076-0.156C173.754,120.578,173.859,119.596,173.885,118.633z
		 M168.854,90.949c-0.014-0.063-0.029-0.123-0.039-0.186c-0.158-0.984-0.26-2.05-0.422-3.072c1.328,0.789,2.678,1.53,4.057,2.199
		c-0.063,1.059-0.184,2.125-0.209,3.189c-0.008,0.379-0.045,0.732-0.092,1.076C170.975,93.162,169.918,92.049,168.854,90.949z
		 M152.541,67.838c-0.09-0.357-0.16-0.709-0.24-1.053c0.045-0.014,0.094-0.026,0.135-0.049c0.096-0.053,0.168-0.107,0.25-0.16
		C152.617,66.988,152.584,67.414,152.541,67.838z M167.836,85.283c-0.365-1.078-0.896-2.051-1.746-2.949
		c-0.326-0.346-0.977-0.092-0.953,0.395c0.014,0.299,0.053,0.596,0.107,0.891c-0.348-0.239-0.695-0.496-1.045-0.766
		c0.064-0.646-0.018-1.213-0.338-1.541c-0.518-0.525-0.723-1.447-0.787-2.508c3.596,2.17,6.318,4.985,8.281,8.436
		C170.174,86.633,169,85.986,167.836,85.283z M151.305,64.863c-0.121-0.09-0.24-0.117-0.355-0.121
		c0.082-0.463,0.148-0.936,0.193-1.416C151.666,64.643,153.189,66.261,151.305,64.863z M158.859,21.49
		c0.09,0.111,0.18,0.223,0.27,0.332c-0.246-0.254-0.486-0.512-0.725-0.775C158.557,21.189,158.711,21.337,158.859,21.49z
		 M165.539,69.752c0-0.002-0.002-0.005-0.002-0.007c-0.092-0.248-0.182-0.497-0.271-0.745c0.088,0.232,0.18,0.463,0.266,0.706
		C165.533,69.722,165.537,69.736,165.539,69.752z M162.447,44.326c0.018,0.02,0.035,0.041,0.053,0.06
		c0.025,0.108,0.045,0.22,0.07,0.329C162.529,44.584,162.486,44.456,162.447,44.326z M149.789,42.201
		c0.014,0.037,0.025,0.074,0.037,0.111c-0.031-0.063-0.064-0.129-0.1-0.191C149.748,42.146,149.77,42.173,149.789,42.201z
		 M146.986,38.314c-0.004,0.033-0.01,0.067-0.014,0.101c-0.057-0.103-0.109-0.207-0.166-0.31
		C146.867,38.175,146.926,38.246,146.986,38.314z M166.332,110.926c0.02,0.047,0.039,0.088,0.064,0.129
		c-0.105,0.141-0.205,0.285-0.309,0.428C166.172,111.297,166.254,111.111,166.332,110.926z M145.045,37.363
		c-0.002,0-0.004-0.002-0.006-0.002c0.002,0,0.006-0.002,0.008-0.002C145.047,37.359,145.045,37.361,145.045,37.363z
		 M152.346,61.555c0.111,0.219,0.223,0.439,0.336,0.649c0.053,0.547,0.15,1.099,0.281,1.649c-0.332-0.589-0.682-1.209-0.646-1.884
		C152.324,61.842,152.336,61.701,152.346,61.555z M161.074,134.484c0.174,0.016,0.352-0.016,0.506-0.096
		c-0.211,0.309-0.424,0.617-0.637,0.926C161.002,135.039,161.043,134.764,161.074,134.484z M164.461,125.479
		c-0.02-0.168-0.09-0.297-0.176-0.408c0.936-2.412,2.006-4.768,3.258-7.043c0.063-0.111,0.139-0.215,0.203-0.324
		c-0.51,1.6-0.971,3.215-1.398,4.83c-0.051,0.191-0.088,0.391-0.125,0.59c-0.537,1.256-0.984,2.564-1.492,3.893
		C164.631,126.494,164.52,125.977,164.461,125.479z M169.008,115.885c0.176-0.221,0.352-0.439,0.537-0.652
		c-0.502,1.389-0.922,2.822-1.188,4.24c-0.283,0.346-0.545,0.697-0.781,1.061C168.018,118.98,168.564,117.441,169.008,115.885z
		 M171.605,113.076c0.291-0.281,0.584-0.561,0.879-0.838c-0.303,1.146-0.361,2.326-0.352,3.523c-0.684,0.596-1.348,1.209-1.99,1.834
		C170.547,116.064,171.068,114.568,171.605,113.076z M173.896,111.102c0.01-0.064,0.004-0.127-0.01-0.188
		c0.002-0.002,0.004-0.004,0.008-0.008c0.008,0.182,0.027,0.359,0.041,0.539c-0.012,0.053-0.012,0.104,0.01,0.145
		c0.066,0.791,0.16,1.576,0.291,2.365c-0.002,0.029-0.004,0.061-0.006,0.09c-0.162,0.125-0.322,0.254-0.484,0.381
		C173.713,113.361,173.727,112.268,173.896,111.102z M187.936,109.184c0.037,0.029,0.076,0.049,0.121,0.041
		c-0.047,0.008-0.086,0.027-0.125,0.049C187.934,109.244,187.936,109.213,187.936,109.184z M183.91,39.956
		c0.014,0.038,0.021,0.073,0.033,0.11c-0.045-0.013-0.092-0.026-0.137-0.039C183.844,40.01,183.875,39.98,183.91,39.956z
		 M169.154,35.593c-0.004-0.008-0.008-0.017-0.012-0.024c0.006-0.018,0.01-0.037,0.016-0.053c0.02-0.035,0.037-0.068,0.059-0.103
		C169.195,35.475,169.174,35.531,169.154,35.593z M179.664,28.171c-0.002-0.175-0.063-0.347-0.174-0.501
		c0.02-0.014,0.033-0.029,0.051-0.045c0.109,0.214,0.227,0.424,0.338,0.638C179.807,28.234,179.736,28.201,179.664,28.171z
		 M118.719,8.734c0.086,0.096,0.18,0.186,0.27,0.278c-0.158-0.112-0.313-0.224-0.479-0.329
		C118.578,8.701,118.648,8.718,118.719,8.734z M145.955,44.423c-0.195,0.629-0.418,1.255-0.621,1.879
		c-0.252-1.53-0.482-3.062-0.703-4.587C145.027,42.637,145.471,43.543,145.955,44.423z M148.109,49.293c0-0.006,0-0.014,0-0.02
		c0.402,1.019,0.719,2.057,0.883,3.127c-0.283-0.308-0.563-0.619-0.836-0.934C148.141,50.749,148.129,50.025,148.109,49.293z
		 M151.219,59.02c-0.01,0.217-0.02,0.432-0.033,0.647c-0.008-0.271-0.02-0.54-0.027-0.81
		C151.178,58.912,151.197,58.965,151.219,59.02z M157.746,75.072c0.648,1.681,1.055,1.554,2.781,2.369
		c0.117,0.056,0.229,0.117,0.344,0.172c0.004,0.879,0.049,1.72,0.166,2.442c-0.742-0.737-1.475-1.516-2.188-2.327
		c-0.494-1.086-0.951-2.188-1.373-3.299C157.568,74.645,157.664,74.859,157.746,75.072z M161.961,83.27
		c-0.008,0.028-0.018,0.057-0.023,0.086c-0.055-0.084-0.109-0.166-0.164-0.248C161.836,83.162,161.898,83.216,161.961,83.27z
		 M163.725,84.686c0.256,0.187,0.512,0.371,0.777,0.549c0.514,0.342,1.027,0.676,1.545,1.008c0.291,0.818,0.518,1.74,0.727,2.679
		c-0.092-0.082-0.18-0.168-0.271-0.249c-1.119-0.966-2.146-2.07-3.096-3.273C163.52,85.174,163.627,84.934,163.725,84.686z
		 M164.82,127.521c0.393-0.854,0.785-1.689,1.199-2.508c-0.049,1.016-0.051,2.037-0.164,2.971c-0.342,0.512-0.68,1.023-1.018,1.535
		C164.98,128.873,164.93,128.199,164.82,127.521z M166.955,123.279c0.355-0.621,0.732-1.229,1.141-1.818
		c-0.074,1.041-0.035,2.055,0.145,3.018c-0.713,1.029-1.42,2.064-2.117,3.107C166.484,126.16,166.695,124.762,166.955,123.279z
		 M169.762,119.354c0.229-0.256,0.461-0.51,0.711-0.754c0.539-0.531,1.109-1.027,1.688-1.516c0.02,0.684,0.035,1.371,0.021,2.059
		c-0.957,1.203-1.879,2.436-2.777,3.688C169.527,121.678,169.592,120.506,169.762,119.354z M173.805,115.744
		c0.092-0.072,0.182-0.146,0.271-0.219c0.037,0.342,0.158,0.646,0.332,1.072c0,0.006,0,0.01,0,0.014
		c-0.078,0.006-0.152,0.037-0.219,0.111c-0.111,0.125-0.211,0.258-0.32,0.385C173.854,116.654,173.83,116.201,173.805,115.744z
		 M178.51,32.338c-2.105,0.229-7.143,1.582-6.891,4.391c0.029,0.338,0.266,0.528,0.52,0.555c0.029,0.021,0.049,0.037,0.092,0.064
		c0.168,0.114,0.377,0.051,0.518-0.066c0.482-0.402,2.771,0.188,3.447,0.232c2.006,0.131,4.289-0.076,6.357,0.327
		c0,0.11,0.002,0.222,0.004,0.333c-0.541-0.17-1.084-0.391-1.592-0.286c-1.658,0.341-3.584,0.485-5.27,0.511
		c-1.111,0.016-2.252,0.113-3.357,0.348c-0.68-0.26-1.318-0.327-2.043-0.338c0.002-0.059-0.01-0.117-0.021-0.176
		c0.047-0.969,0.191-1.998,0.406-2.863c0.186-0.741,1.129-1.227,1.5-1.856c0.207-0.351,0.404-0.707,0.6-1.063
		c0.162-0.066,0.34-0.129,0.531-0.186c0.188,0.039,0.385,0.021,0.539-0.093c0.031-0.022,0.061-0.048,0.092-0.071
		c0.928-0.218,1.932-0.363,2.375-0.498c1.725-0.525,3.963-0.607,5.816-0.494c0.207,0.381,0.404,0.772,0.588,1.172
		C181.471,31.82,179.895,32.188,178.51,32.338z M149.055,3.465c-0.064-0.031-0.125-0.068-0.191-0.098
		c0.064,0.023,0.133,0.048,0.195,0.07C149.057,3.447,149.057,3.456,149.055,3.465z M154.344,67.322
		c0.057,0.094,0.121,0.179,0.18,0.271c0.057,0.168,0.115,0.337,0.174,0.505c0.229,2.043,0.693,4.129,1.359,6.19
		c-0.756-1.009-1.467-2.026-2.127-3.034C154.043,69.925,154.156,68.613,154.344,67.322z M161.316,139.594
		c-0.107-0.008-0.223,0.004-0.35,0.057c-0.105,0.043-0.211,0.086-0.316,0.129c0.102-0.607,0.154-1.189,0.15-1.762
		c0.125-0.178,0.248-0.355,0.373-0.533c0.535-0.502,1.051-1.002,1.525-1.502c0.166-0.174,0.094-0.436-0.064-0.559
		c3.152-4.441,6.295-8.857,9.215-13.471c-0.018,0.068-0.027,0.137-0.047,0.203c-0.844,3.15-2.824,4.914-4.574,7.395
		c-1.146,1.623-1.867,3.428-2.977,5.055C163.268,136.049,162.193,137.764,161.316,139.594z M168.24,131.809
		c0.002-0.004-0.004-0.008-0.002-0.014c0.084-0.23,0.17-0.465,0.26-0.691c0.012,0.133,0.037,0.348,0.08,0.561
		c-0.023,0.043-0.035,0.092-0.008,0.137c0.023,0.041,0.047,0.08,0.07,0.119c0.014,0.047,0.029,0.088,0.045,0.129
		c-0.105,0.227-0.086,0.49,0.018,0.771c-0.523,0.711-0.982,1.414-1.416,2.125C167.629,133.877,167.953,132.828,168.24,131.809z
		 M148.572,188.727c1.496-0.965,3.219-1.576,4.871-2.301c-0.137,0.553-0.352,1.135-0.67,1.764c-0.053,0.107-0.102,0.215-0.154,0.322
		c-1.248,0.539-2.496,1.088-3.814,1.455c-0.809,0.225-1.813,1.168-2.59,1.574c-0.293,0.152-0.559,0.311-0.813,0.467
		c0.199-0.512,0.297-1.072,0.311-1.643C146.656,189.826,147.639,189.328,148.572,188.727z M168.047,172.518
		c0.395-0.174,0.766-0.545,1.146-0.76c0.686-0.385,1.227-0.297,1.906-0.451c-0.682,0.303-1.291,0.662-1.885,1.201
		c-0.848,0.768-1.738,1.479-2.621,2.205c0.27-0.627,0.43-1.236,0.506-1.865C167.42,172.74,167.748,172.65,168.047,172.518z
		 M171.434,163.566c0.018,0.08,0.033,0.16,0.053,0.242c0.006,0.303,0.023,0.6,0.063,0.889
		C171.477,164.34,171.438,163.963,171.434,163.566z M165.088,144.699c0.168,0.26,0.42,0.504,0.803,0.73
		c0.604,0.352,2.262-0.16,2.822-0.268c3.191-0.604,2.354,1.309,4.232,1.15c1.563-0.129,3.307-0.105,4.682-0.848
		c0.047-0.025,1.238-0.119,2.385-0.193c-0.861,0.5-1.727,1.066-2.477,1.688c-1.385,0.891-3.039,2.35-4.543,3.848
		c-0.799-0.141-1.574-0.406-2.445-1.146c-0.582-0.494-1.52-0.559-2.234-0.715c-1.033-0.225-1.447-1.447-2.402-1.742
		C165.162,146.971,164.99,145.967,165.088,144.699z M143.443,193.98c2.109-0.729,4.023-2.57,6.211-3.139
		c0.672-0.176,1.396-0.367,2.123-0.594c-0.32,0.686-0.633,1.371-0.939,2.061c-2.541,1.211-5.025,2.527-7.568,3.838
		c0.088-0.227,0.176-0.451,0.246-0.691C143.67,194.932,143.584,194.453,143.443,193.98z M178.967,157.156
		c0.033-0.02,0.07-0.029,0.102-0.055c0.117-0.096,0.23-0.201,0.346-0.301c-0.021,0.039-0.043,0.076-0.063,0.115
		c-0.221,0.191-0.436,0.342-0.645,0.469C178.793,157.309,178.883,157.234,178.967,157.156z M175.877,161.086
		c0.385-0.648,1.227-1.404,2.064-1.906c-0.316,0.609-0.617,1.26-1.041,1.98c-0.695,1.188-0.295,2.902-0.771,4.277
		c-0.1,0.285-0.207,0.645-0.303,1.037C175.248,164.838,174.279,163.793,175.877,161.086z M186.998,154.85
		c0.041-0.063,0.084-0.123,0.125-0.186c-0.045,0.082-0.078,0.166-0.125,0.248C186.998,154.893,186.998,154.869,186.998,154.85z
		 M175.441,173.566c-0.068,0.117-0.117,0.25-0.127,0.412c-0.006,0.094-0.012,0.186-0.018,0.279
		c-0.045-0.301-0.088-0.602-0.123-0.908C175.262,173.424,175.354,173.494,175.441,173.566z M175.367,150.289
		c-0.002,0.117,0.016,0.221,0.049,0.309c0.002,0.004,0.002,0.008,0.004,0.012c-0.135,0.148-0.225,0.314-0.254,0.492
		c-0.205-0.037-0.402-0.064-0.598-0.09C174.83,150.766,175.096,150.525,175.367,150.289z M176.053,153.902
		c-0.703,0.098-1.5,0.021-2.484-0.314C174.34,153.52,175.066,153.412,176.053,153.902z M173.527,171.674
		c0.111,0.135,0.221,0.268,0.336,0.396c-0.014,0.051-0.037,0.098-0.035,0.156l0,0c-0.006,0.176,0,0.35,0.002,0.521
		c-0.406,0.203-0.816,0.402-1.219,0.609c-1.91,0.977-3.418,2.965-5.146,4.223c-1.045,0.76-3.061,1.648-4.385,2.826
		c0.334-0.971,1.652-2.822,2.328-3.73c0.547-0.352,1.338-0.682,1.73-0.957c0.805-0.563,1.607-1.068,2.391-1.668
		C170.818,173.064,172.25,172.563,173.527,171.674z M164.5,181.402c-0.193-0.277-0.504-0.451-0.861-0.43
		c1.809-1.418,4.188-2.455,5.889-3.801c1.436-1.137,2.656-2.498,4.307-3.334c0.012-0.006,0.021-0.012,0.033-0.018
		c0.023,0.363,0.053,0.729,0.086,1.088c-1.402,0.811-2.744,1.99-3.848,2.723C168.508,178.691,166.094,179.813,164.5,181.402z
		 M165.301,170.688c-0.006,0.059-0.021,0.113-0.027,0.172c-0.033,0.006-0.068,0.01-0.102,0.021c0.035-0.061,0.047-0.117,0.066-0.178
		C165.26,170.701,165.279,170.691,165.301,170.688z M164.705,182.658c0.459-0.26,0.924-0.512,1.252-0.854
		c1.246-1.297,3.24-2.209,4.828-3.012c1.123-0.566,2.248-1.246,3.355-1.953c0.033,0.379,0.057,0.76,0.074,1.143
		c-1.174,0.273-2.289,0.699-3.141,1.252c-2.264,1.467-4.59,3.104-6.58,5.023C164.613,183.711,164.689,183.178,164.705,182.658z
		 M183.648,180.061c-0.008,0-0.014-0.002-0.021-0.002c0.555-1.133,1.352-1.904,1.99-3.123c1.115,0.078,2.223,0.107,3.328,0.074
		c-0.018,0.01-0.033,0.02-0.051,0.029C187.182,178.039,185.434,179.186,183.648,180.061z M194.398,172.479
		c-0.006-0.021-0.018-0.039-0.025-0.059c0.031,0.02,0.063,0.035,0.094,0.055C194.443,172.475,194.422,172.477,194.398,172.479z
		 M191.811,162.627c-0.047,0.807-0.375,1.189-0.34,1.754c-0.01-0.029-0.018-0.061-0.029-0.09c-0.936-2.123-1.188-3.834,0.428-5.639
		c0.16-0.18,0.33-0.365,0.502-0.557C192.059,159.598,191.896,161.133,191.811,162.627z M200.445,148.035
		c0.086,0.004,0.17-0.012,0.248-0.037c0.029,0.547,0.059,1.094,0.088,1.641c-0.34,0.863-0.504,1.766-0.609,2.676
		c-0.086-0.314-0.168-0.633-0.236-0.971c-0.033-0.162-0.193-0.322-0.355-0.354c-0.729-0.15-1.061-0.307-1.473-0.834
		C198.965,149.268,199.975,148.02,200.445,148.035z M184.08,140.922c-0.967-0.018-1.898-0.129-2.754-0.48
		c0.396,0.016,0.795,0.037,1.193,0.061C183.045,140.639,183.566,140.775,184.08,140.922z M178.697,140.422
		c1.408,1.428,3.672,2.014,5.957,2.104c-0.189,0.199-0.408,0.387-0.646,0.563c-2.023,0.504-4.035,0.77-6.281,0.477
		c-0.652-0.086-2.99,0.395-3.715,0.746c-1.342,0.652-1.652-0.594-2.604-0.855c-0.969-0.266-2.158,0.064-3.1,0.246
		c-1.174,0.227-1.77-0.002-2.156-0.43c2.455-0.479,4.752-1.689,7.234-2.227C175.199,140.652,176.955,140.473,178.697,140.422z
		 M170.814,168.928c-0.191,0.08-0.363,0.189-0.518,0.328c-0.033,0.033-0.049,0.053-0.066,0.074c-0.02-0.041-0.121-0.063-0.461,0.02
		c-1.076,0.264-1.877,0.895-2.623,1.662c-0.018-0.348-0.043-0.713-0.076-1.096c0.016-0.004,0.031-0.01,0.047-0.014
		c0.229-0.057,0.404-0.178,0.598-0.307c0.295-0.199,0.586-0.383,0.826-0.617c0.324-0.047,0.59-0.195,0.904-0.166
		c0.326,0.029,0.566-0.178,0.705-0.439c0.049-0.037,0.1-0.068,0.139-0.113c0.189,0.215,0.387,0.426,0.598,0.631
		C170.861,168.904,170.838,168.912,170.814,168.928z M153.621,184.26c-2.033,0.947-4.047,2.195-5.727,3.307
		c-0.791,0.523-1.502,1.102-2.268,1.627c-0.031-0.188-0.064-0.373-0.113-0.547c-0.059-0.213-0.133-0.469-0.221-0.738
		c0.18-0.127,0.35-0.242,0.508-0.336c2.533-1.52,5.344-2.557,7.689-4.328C153.551,183.582,153.598,183.918,153.621,184.26z
		 M133.854,196.33c-0.018,0.02-0.037,0.035-0.055,0.055c0.613-0.85,1.164-1.748,1.508-2.67c0.008-0.021,0.006-0.043,0.012-0.064
		c1.305-1.037,2.641-2.051,3.83-3.189c0.504-0.363,1.025-0.729,1.557-1.094c-1.256,2.527-2.832,4.326-4.957,5.945
		C135.057,195.553,134.313,195.889,133.854,196.33z M160.977,191.82c0.428-0.205,0.977-0.479,1.059-0.529
		c0.795-0.486,1.654-0.85,2.461-1.313c1.299-0.746,2.828-0.971,3.625-2.398c0.107-0.189-0.1-0.357-0.277-0.277
		c-0.518,0.23-1.322,0.982-1.898,0.941c-0.621-0.043-1.131,0.33-1.635,0.668c-0.791,0.531-1.652,1.074-2.523,1.578
		c0.861-1.461,1.646-2.979,2.189-4.467c0.664-0.561,1.338-1.084,2.021-1.402c1.639-0.76,3.313-1.893,4.721-3.033
		c1.137-0.924,2.289-1.377,3.463-1.699c-0.051,0.592-0.146,1.168-0.277,1.732c-0.188,0.203-0.369,0.418-0.547,0.643
		c-0.41,0.512-0.814,0.832-1.367,1.18c-0.842,0.531-2.141,0.9-2.25,2.035c-0.02,0.195,0.152,0.396,0.334,0.439
		c0.83,0.197,1.963-0.488,2.711-1.096c-0.723,1.572-1.613,3.086-2.445,4.621c-1.08,0.346-2.426,1.15-2.855,1.262
		c-2.029,0.531-3.861,1.502-5.643,2.582c-0.844,0.512-1.807,0.949-2.736,1.434C159.688,193.826,160.336,192.846,160.977,191.82z
		 M180.543,193.225c0.164-0.314,0.318-0.631,0.479-0.947c4.027-1.236,7.965-2.65,11.953-3.973c-0.217,0.393-0.438,0.781-0.646,1.182
		c-2.014,0.551-4.025,1.027-6.006,1.844c-2.342,0.969-4.502,2.18-6.639,3.482C179.977,194.277,180.27,193.744,180.543,193.225z
		 M197.84,180.033c-1.377,1.402-2.217,4.199-3.377,5.84c-0.133,0.189-0.25,0.396-0.379,0.592c-2.088,0.148-4.105,1.168-6.018,1.943
		c-2.008,0.814-4.217,1.459-6.27,2.313c0.164-0.34,0.328-0.682,0.492-1.023c0.523-0.139,1.045-0.49,1.521-0.633
		c1.211-0.363,2.479-0.598,3.559-1.285c0.277-0.176,0.188-0.668-0.176-0.646c-1.135,0.059-2.25,0.324-3.342,0.635
		c-0.287,0.082-0.535,0.18-0.766,0.289c0.439-0.896,0.883-1.787,1.359-2.664c0.641-1.182,1.701-2.326,2.088-3.629
		c0.107-0.152,0.186-0.326,0.168-0.533c-0.006-0.084-0.012-0.168-0.018-0.25c0.02-0.363-0.131-0.609-0.348-0.766
		c0.965-0.512,1.893-1.117,2.727-1.604c0.871-0.508,1.814-1.119,2.641-1.844c0.375-0.055,0.75-0.113,1.125-0.191
		c-0.164,0.158-0.326,0.318-0.49,0.455c-0.613,0.512-1.326,0.898-1.98,1.355c-0.795,0.555-1.5,1.354-2.293,1.871
		c-0.322,0.209,0.066,0.67,0.311,0.402c0.041-0.045,0.08-0.088,0.119-0.131c0.027-0.029,0.027-0.072,0-0.102
		c0.18,0.191,0.109,0.26,0.666-0.082c0.902-0.555,1.824-1.121,2.754-1.629c0.322-0.176,1.35-0.934,1.908-1.326
		c0.225,0.248,0.559,0.406,0.969,0.443c0.576,0.053,0.971-0.105,1.336-0.313c-0.076,0.775,0.082,1.418,0.979,1.428
		c0.232,0.324,0.467,0.648,0.697,0.975C197.814,179.957,197.826,179.996,197.84,180.033z M194.188,167.26
		c-0.193-0.096-0.385-0.191-0.576-0.289c-0.221-0.779-0.439-1.564-0.756-2.307c-0.049-0.113,0.563-1.178,0.59-1.406
		c0.201-1.793,0.021-3.557,0.504-5.322c0.271-1.002,0.641-1.963,1.014-2.922c0.936-1.156,1.564-2.662,2.439-3.836
		c0.443,0.596,0.879,0.918,1.695,0.857c0.174,0.5,0.344,0.988,0.473,1.492c-0.605,0.904-1,1.979-1.311,3.002
		c-0.152,0.498-1.1,1.637-2.037,2.404c-0.539,0.248-1.098,0.482-1.668,0.805c-0.191,0.107-0.18,0.471,0.066,0.506
		c0.859,0.127,1.75-0.531,2.539-1.092c0.631-0.283,1.227-0.633,1.762-1.248c-0.412,1.016-0.846,1.91-1.691,2.932
		s-1.775,1.805-2.789,2.639c-0.006,0.004,0,0.012,0.006,0.008c-0.605,0.303,1.031-0.148,1.348-0.334
		c0.723-0.422,1.395-1.172,2.014-1.732c0.045-0.041,0.092-0.084,0.139-0.127C197.076,163.596,196.082,165.666,194.188,167.26z
		 M187.439,125.34c0.008,0.029,0.02,0.061,0.029,0.092c-0.037-0.041-0.066-0.08-0.105-0.123
		C187.385,125.328,187.412,125.338,187.439,125.34z M188.301,135.314c-0.055,0.068-0.096,0.141-0.152,0.209
		c-0.967,1.145-1.357,2.527-1.811,3.865c-0.512,0.006-1.023-0.004-1.535-0.029c-1.043-0.252-2.1-0.402-3.162-0.463
		c-0.791-0.221-1.502-0.535-2.104-0.959c1.645-0.107,3.379-0.578,4.65-1.025C185.775,136.355,187.092,135.91,188.301,135.314z
		 M170.816,135.355c1.539,1.545,4.008,1.584,5.945,2.285c0.053,0.018,0.111,0.023,0.164,0.043c0.197,0.471,0.426,0.906,0.676,1.305
		c-1.021,0.098-2.047,0.236-3.07,0.4c-1.357,0.217-7.063,1.809-8.914,2.982c-0.031-0.072-0.066-0.146-0.102-0.223
		c0.188-0.801,0.408-1.586,0.605-2.266c0.705-1.215,1.398-2.336,1.74-3.016c0.494-0.982,1.113-1.85,1.77-2.688
		C170.109,134.707,170.617,135.154,170.816,135.355z M169.277,131.771c0.039-0.316-0.072-0.697-0.082-1.01
		c-0.01-0.346,0.033-0.691,0.053-1.037c0.447-0.48,0.881-0.973,1.229-1.531c1.176-1.885,2.016-3.543,2.738-5.646
		c0.025-0.074,0.045-0.146,0.068-0.223c0.088-0.168,0.186-0.332,0.27-0.504c-0.242,0.926-0.502,1.848-0.791,2.76
		c-0.543,1.027-0.979,2.123-1.246,3.324c-0.594,1.359-1.305,2.693-2.176,3.994C169.318,131.855,169.297,131.814,169.277,131.771z
		 M177.031,118.477c0.055,0,0.107-0.004,0.16-0.012c-0.074,0.094-0.146,0.188-0.223,0.279
		C176.99,118.654,177.012,118.566,177.031,118.477z M52.35,75.785c-0.017,0.037-0.031,0.074-0.047,0.111
		c-0.127,0.256-0.27,0.502-0.393,0.76c0.087-0.187,0.168-0.375,0.262-0.559C52.227,75.99,52.292,75.893,52.35,75.785z
		 M51.439,77.717c-0.01,0.01-0.021,0.02-0.029,0.028c0.137-0.312,0.281-0.617,0.424-0.925
		C51.695,77.115,51.574,77.419,51.439,77.717z M46.154,92.576c-0.025,0.021-0.047,0.041-0.07,0.064
		c0.037-0.234,0.076-0.465,0.113-0.697C46.176,92.158,46.162,92.369,46.154,92.576z M132.943,27.73
		c-2.787-2.437-4.676-5.688-7.281-8.285c-2.191-2.185-4.164-4.496-6.043-6.897c0.264,0.197,0.529,0.39,0.805,0.572
		c1.834,1.224,4.469,1.952,6.131,3.247c1.574,1.226,2.854,2.949,4.41,4.277c1.523,2.953,2.949,5.92,4.221,8.935
		C134.428,28.979,133.676,28.369,132.943,27.73z M137.904,31.689c-0.699-2.16-1.928-4.145-3.131-6.049
		c-0.285-0.449-0.688-1.547-1.188-2.736c0.037,0.039,0.07,0.078,0.107,0.115c1.074,1.408,2.168,2.838,3.305,4.215
		c0.23,1.563,0.605,3.078,1.057,4.572C138.004,31.768,137.953,31.729,137.904,31.689z M141.029,36.607
		c0.52,0.401,1.043,0.795,1.574,1.181c-0.02,1.099,0.014,2.21,0.096,3.319C142.236,39.643,141.639,38.035,141.029,36.607z
		 M152.521,110.854c0-0.388-0.041-0.888-0.275-1.197c-1.43-1.903,0.336-1.62,0.336-2.928c0-1.512,0.047-3.121,0.371-4.67
		c0.459-2.197-0.355-4.271-0.357-6.455c-0.004-2.08-0.611-3.992-0.508-6.125c0.082-1.699,0.006-4.225-0.297-5.914
		c-0.525-2.943-0.145-6.037,0.105-9.098c0.533,2.148,0.818,4.571,1.076,6.762c0.033,0.285,0.41,0.285,0.443,0
		c0.18-1.513,0.467-3.828,0.107-5.326c-0.242-1.002-0.125-1.586,0.039-2.269c0.979,1.19,2.016,2.343,2.99,3.521
		c0.223,3.691,0.459,7.68-0.688,11.104c-0.625,1.869-1.246,3.614-1.1,5.591c0.129,1.717,1.334,3.252,1.303,5.129
		c-0.047,2.813,0.004,5.553,0.574,8.023c-0.029,0.035-0.063,0.059-0.088,0.104c-0.637,1.111-1.084,2.192-1.57,3.258
		c-0.174-0.01-0.357,0.076-0.408,0.264c-0.107,0.402-0.217,0.807-0.326,1.207c-0.016,0.029-0.031,0.061-0.049,0.092
		c0.033-0.508,0.127-1.221-0.205,0.365c-0.324,0.549-0.697,1.094-1.156,1.641c-0.064,0.076-0.123,0.154-0.186,0.232
		C152.576,113.066,152.521,111.967,152.521,110.854z M161.76,143.74c0.002-0.006,0.004-0.012,0.002-0.018
		c0.098-0.799,0.326-1.619,0.787-2.482c1.559-2.906,3.148-5.717,4.543-8.744c0.26-0.563,0.617-1.053,1.01-1.516
		c-0.059,0.15-0.113,0.305-0.17,0.457c-0.1-0.004-0.197,0.021-0.252,0.137c-1.867,3.973-3.328,8.059-4.482,12.291
		c-0.35,1.285-0.816,2.721-1.127,4.174C161.871,146.619,161.586,145.221,161.76,143.74z M163.768,149.803
		c0.111,0.303,0.234,0.6,0.367,0.893c-0.121,0.041-0.24,0.086-0.359,0.133C163.764,150.49,163.762,150.146,163.768,149.803z
		 M163.932,152.512c0.313-0.141,0.631-0.273,0.949-0.4c0.627,0.994,1.953,2.133,1.83,3.367c-0.064,0.629,0.678,1.131,1.244,0.949
		c0.15-0.049,0.373-0.068,0.604-0.094c-0.414,1.084-0.697,2.164-0.84,3.23C165.445,157.551,164.322,155.141,163.932,152.512z
		 M170.42,161.785c-0.162,1.865,0.063,3.711,0.635,5.436c-1.021-1.752-1.893-3.596-1.539-5.58
		C169.805,161.703,170.105,161.748,170.42,161.785z M152.74,179.816c0.111,0.619,0.246,1.197,0.379,1.748
		c-0.766,0.516-1.496,1.09-2.25,1.65c-1.563,1.158-3.236,1.836-4.949,2.738c-0.402,0.213-0.777,0.457-1.137,0.717
		c-0.117-0.223-0.254-0.43-0.402-0.621c0.988-0.73,1.975-1.465,2.938-2.229C149.084,182.418,150.906,181.109,152.74,179.816z
		 M168.195,192.414c-0.744-0.025-1.289,0.225-1.936,0.568c-1.854,0.986-3.633,1.836-5.422,2.951
		c-1.219,0.758-2.627,1.756-4.049,2.52c0.279-0.469,0.561-0.938,0.842-1.402c2.551-1.23,5.096-2.447,7.646-3.707
		c1.006-0.494,2.314-0.967,3.365-1.396c0.16-0.064,0.328-0.15,0.498-0.244c-0.113,0.221-0.225,0.439-0.334,0.658
		C168.604,192.402,168.4,192.422,168.195,192.414z M184.373,195.395c-1.318,0.531-2.729,0.551-4.051,1.195
		c-0.836,0.408-1.678,0.9-2.49,1.439c0.359-0.598,0.707-1.189,1.047-1.783c2.969-0.439,6.027-2.77,8.773-3.863
		c1.266-0.506,2.537-0.916,3.836-1.271c-0.23,0.453-0.461,0.9-0.691,1.338c-0.654,0.098-1.301,0.236-1.805,0.51
		C187.531,193.75,185.896,194.781,184.373,195.395z"/>
	<path fill="#231F20" d="M108.307,192.475c-0.51-1.033-1.488-3.201-1.893-4.324c-0.291-0.689-0.57-1.383-0.842-2.082
		c-0.033-0.707-0.289-1.154-0.752-1.354c0.006-0.021,0.02-0.035,0.021-0.059c0.023-0.16,0.051-0.318,0.074-0.479
		c0.059-0.373-0.09-0.844-0.523-0.922c-0.078-0.016-0.158-0.029-0.238-0.043c-0.068-0.014-0.141-0.016-0.211-0.012
		c0.082-0.068,0.166-0.139,0.26-0.215c0.398-0.32,0.184-0.879-0.146-1.129c0.002,0,0.006,0,0.008,0c-0.359-0.287-0.893-0.381-1.24,0
		c-1.246,1.369-2.668,2.723-4.066,3.934c-0.783,0.676-1.471,1.451-2.131,2.252c-0.266,0.006-0.535,0.109-0.762,0.355
		c-1.184,1.279-2.18,2.668-3.213,4.047c-0.289,0.295-0.561,0.602-0.807,0.92c-2.473,2.195-4.695,5.605-6.408,8.273
		c-0.457,0.715,0.133,1.818,1.008,1.756c0.215,0.039,0.43,0.078,0.646,0.115c0.535,0.338,1.336,0.133,1.635-0.43
		c0.982-1.84,3.188-3.57,4.295-5.482c-0.006,0.107-0.012,0.217-0.018,0.314c-0.09,1.297,0.314,1.1-0.523,1.98
		c-0.539,0.566-0.883,1.369-1.26,2.045c-0.873,1.561-2.01,2.953-2.016,4.789c-0.002,0.736,1.008,1.008,1.377,0.373
		c0.582-0.996,1.133-2.361,1.791-3.631c0.328,0.48,1.063,0.729,1.508,0.193c0.055-0.063,0.094-0.135,0.145-0.201
		c0.002,0.002,0.006,0.004,0.008,0.006c0.012-0.016,0.021-0.033,0.033-0.049c0.217,0.031,0.434-0.006,0.627-0.109
		c0.33,0.426,0.963,0.582,1.447,0.115c0.18-0.174,0.357-0.367,0.535-0.564c0.236,0.139,0.553,0.203,0.791,0.104
		c0.547-0.229,1.049-0.521,1.527-0.844c-0.328,0.525-0.652,1.051-0.957,1.576c-0.525,0.91,0.523,1.977,1.438,1.439
		c0.521-0.309,0.986-0.695,1.428-1.117c0.039,0.002,0.078,0.004,0.115,0.004c-0.146,0.268-0.289,0.549-0.43,0.852
		c-0.336,0.725,0.484,1.391,1.104,0.852c2.137-1.861,3.893-4.275,5.924-6.324c0.719-0.725,3.109-2.324,2.293-3.736
		C109.33,194.662,108.816,193.502,108.307,192.475z M103.557,189.672c0.127,0.18,0.26,0.373,0.398,0.586
		c-0.063-0.004-0.125-0.01-0.188,0c-0.15-0.182-0.338-0.34-0.553-0.479C103.336,189.742,103.441,189.707,103.557,189.672z
		 M94.912,197.887c0.049,0.059,0.098,0.109,0.154,0.154c-0.043,0.055-0.084,0.107-0.125,0.164
		C94.93,198.1,94.922,197.994,94.912,197.887z M104.068,181.893c-0.012-0.014-0.023-0.027-0.039-0.039
		c0.01,0.002,0.02,0.002,0.029,0.004C104.063,181.869,104.064,181.881,104.068,181.893z M100.85,186.537
		c1.586-1.389,1.662-1.85,2.291-2.563c0.002,0.066,0.014,0.141,0.039,0.215c0.35,1.025,0.645,2.188,1,3.313
		c-0.158-0.043-0.326-0.059-0.504-0.006c-1.574,0.455-3.658,1.033-5.518,1.859C98.994,188.367,99.844,187.418,100.85,186.537z"/>
</g>
</svg>
